  0
SECTION
  2
HEADER
  9
$ACADVER
  1
AC1012
  9
$DWGCODEPAGE
  3
undefined
  9
$INSBASE
 10
0.0
 20
0.0
 30
0.0
  9
$EXTMIN
 10
1.000000000000000E+20
 20
1.000000000000000E+20
 30
1.000000000000000E+20
  9
$EXTMAX
 10
-1.000000000000000E+20
 20
-1.000000000000000E+20
 30
-1.000000000000000E+20
  9
$LIMMIN
 10
0.0
 20
0.0
  9
$LIMMAX
 10
12.0
 20
9.0
  9
$ORTHOMODE
 70
     0
  9
$REGENMODE
 70
     1
  9
$FILLMODE
 70
     1
  9
$QTEXTMODE
 70
     0
  9
$MIRRTEXT
 70
     1
  9
$DRAGMODE
 70
     2
  9
$LTSCALE
 40
1.0
  9
$OSMODE
 70
    37
  9
$ATTMODE
 70
     1
  9
$TEXTSIZE
 40
0.2
  9
$TRACEWID
 40
0.05
  9
$TEXTSTYLE
  7
STANDARD
  9
$CLAYER
  8
0
  9
$CELTYPE
  6
BYLAYER
  9
$CECOLOR
 62
   256
  9
$CELTSCALE
 40
1.0
  9
$DELOBJ
 70
     1
  9
$DISPSILH
 70
     0
  9
$DIMSCALE
 40
1.0
  9
$DIMASZ
 40
0.18
  9
$DIMEXO
 40
0.0625
  9
$DIMDLI
 40
0.38
  9
$DIMRND
 40
0.0
  9
$DIMDLE
 40
0.0
  9
$DIMEXE
 40
0.18
  9
$DIMTP
 40
0.0
  9
$DIMTM
 40
0.0
  9
$DIMTXT
 40
0.18
  9
$DIMCEN
 40
0.09
  9
$DIMTSZ
 40
0.0
  9
$DIMTOL
 70
     0
  9
$DIMLIM
 70
     0
  9
$DIMTIH
 70
     1
  9
$DIMTOH
 70
     1
  9
$DIMSE1
 70
     0
  9
$DIMSE2
 70
     0
  9
$DIMTAD
 70
     0
  9
$DIMZIN
 70
     0
  9
$DIMBLK
  1

  9
$DIMASO
 70
     1
  9
$DIMSHO
 70
     1
  9
$DIMPOST
  1

  9
$DIMAPOST
  1

  9
$DIMALT
 70
     0
  9
$DIMALTD
 70
     2
  9
$DIMALTF
 40
25.4
  9
$DIMLFAC
 40
1.0
  9
$DIMTOFL
 70
     0
  9
$DIMTVP
 40
0.0
  9
$DIMTIX
 70
     0
  9
$DIMSOXD
 70
     0
  9
$DIMSAH
 70
     0
  9
$DIMBLK1
  1

  9
$DIMBLK2
  1

  9
$DIMSTYLE
  2
STANDARD
  9
$DIMCLRD
 70
     0
  9
$DIMCLRE
 70
     0
  9
$DIMCLRT
 70
     0
  9
$DIMTFAC
 40
1.0
  9
$DIMGAP
 40
0.09
  9
$DIMJUST
 70
     0
  9
$DIMSD1
 70
     0
  9
$DIMSD2
 70
     0
  9
$DIMTOLJ
 70
     1
  9
$DIMTZIN
 70
     0
  9
$DIMALTZ
 70
     0
  9
$DIMALTTZ
 70
     0
  9
$DIMFIT
 70
     3
  9
$DIMUPT
 70
     0
  9
$DIMUNIT
 70
     2
  9
$DIMDEC
 70
     4
  9
$DIMTDEC
 70
     4
  9
$DIMALTU
 70
     2
  9
$DIMALTTD
 70
     2
  9
$DIMTXSTY
  7
STANDARD
  9
$DIMAUNIT
 70
     0
  9
$LUNITS
 70
     2
  9
$LUPREC
 70
     4
  9
$SKETCHINC
 40
0.1
  9
$FILLETRAD
 40
0.5
  9
$AUNITS
 70
     0
  9
$AUPREC
 70
     0
  9
$MENU
  1
.
  9
$ELEVATION
 40
0.0
  9
$PELEVATION
 40
0.0
  9
$THICKNESS
 40
0.0
  9
$LIMCHECK
 70
     0
  9
$CHAMFERA
 40
0.5
  9
$CHAMFERB
 40
0.5
  9
$CHAMFERC
 40
1.0
  9
$CHAMFERD
 40
0.0
  9
$SKPOLY
 70
     0
  9
$TDCREATE
 40
2458342.904282396
  9
$TDUPDATE
 40
2458342.904282396
  9
$TDINDWG
 40
0.0000000116
  9
$TDUSRTIMER
 40
0.0000000116
  9
$USRTIMER
 70
     1
  9
$ANGBASE
 50
0.0
  9
$ANGDIR
 70
     0
  9
$PDMODE
 70
     0
  9
$PDSIZE
 40
0.0
  9
$PLINEWID
 40
0.0
  9
$COORDS
 70
     1
  9
$SPLFRAME
 70
     0
  9
$SPLINETYPE
 70
     6
  9
$SPLINESEGS
 70
     8
  9
$ATTDIA
 70
     0
  9
$ATTREQ
 70
     1
  9
$HANDLING
 70
     1
  9
$HANDSEED
  5
53
  9
$SURFTAB1
 70
     6
  9
$SURFTAB2
 70
     6
  9
$SURFTYPE
 70
     6
  9
$SURFU
 70
     6
  9
$SURFV
 70
     6
  9
$UCSNAME
  2

  9
$UCSORG
 10
0.0
 20
0.0
 30
0.0
  9
$UCSXDIR
 10
1.0
 20
0.0
 30
0.0
  9
$UCSYDIR
 10
0.0
 20
1.0
 30
0.0
  9
$PUCSNAME
  2

  9
$PUCSORG
 10
0.0
 20
0.0
 30
0.0
  9
$PUCSXDIR
 10
1.0
 20
0.0
 30
0.0
  9
$PUCSYDIR
 10
0.0
 20
1.0
 30
0.0
  9
$USERI1
 70
     0
  9
$USERI2
 70
     0
  9
$USERI3
 70
     0
  9
$USERI4
 70
     0
  9
$USERI5
 70
     0
  9
$USERR1
 40
0.0
  9
$USERR2
 40
0.0
  9
$USERR3
 40
0.0
  9
$USERR4
 40
0.0
  9
$USERR5
 40
0.0
  9
$WORLDVIEW
 70
     1
  9
$SHADEDGE
 70
     3
  9
$SHADEDIF
 70
    70
  9
$TILEMODE
 70
     1
  9
$MAXACTVP
 70
    64
  9
$PINSBASE
 10
0.0
 20
0.0
 30
0.0
  9
$PLIMCHECK
 70
     0
  9
$PEXTMIN
 10
1.000000000000000E+20
 20
1.000000000000000E+20
 30
1.000000000000000E+20
  9
$PEXTMAX
 10
-1.000000000000000E+20
 20
-1.000000000000000E+20
 30
-1.000000000000000E+20
  9
$PLIMMIN
 10
0.0
 20
0.0
  9
$PLIMMAX
 10
12.0
 20
9.0
  9
$UNITMODE
 70
     0
  9
$VISRETAIN
 70
     1
  9
$PLINEGEN
 70
     0
  9
$PSLTSCALE
 70
     1
  9
$TREEDEPTH
 70
  3020
  9
$PICKSTYLE
 70
     1
  9
$CMLSTYLE
  2
STANDARD
  9
$CMLJUST
 70
     0
  9
$CMLSCALE
 40
1.0
  9
$SAVEIMAGES
 70
     1
  0
ENDSEC
  0
SECTION
  2
CLASSES
  0
CLASS
  1
ACDBDICTIONARYWDFLT
  2
AcDbDictionaryWithDefault
  3
ObjectDBX Classes
 90
    32768
280
     0
281
     0
  0
CLASS
  1
VISUALSTYLE
  2
AcDbVisualStyle
  3
ObjectDBX Classes
 90
     4095
280
     0
281
     0
  0
CLASS
  1
MATERIAL
  2
AcDbMaterial
  3
ObjectDBX Classes
 90
     1153
280
     0
281
     0
  0
CLASS
  1
SUN
  2
AcDbSun
  3
SCENEOE
 90
     1024
280
     0
281
     0
  0
CLASS
  1
DICTIONARYVAR
  2
AcDbDictionaryVar
  3
ObjectDBX Classes
 90
        0
280
     0
281
     0
  0
CLASS
  1
XRECORD
  2
AcDbXrecord
  3
AutoCAD 2000
 90
    32768
280
     0
281
     0
  0
CLASS
  1
LWPOLYLINE
  2
AcDbPolyline
  3
AutoCAD 2000
 90
    32768
280
     0
281
     1
  0
CLASS
  1
HATCH
  2
AcDbHatch
  3
AutoCAD 2000
 90
    32768
280
     0
281
     1
  0
CLASS
  1
ACDBPLACEHOLDER
  2
AcDbPlaceHolder
  3
ObjectDBX Classes
 90
        0
280
     0
281
     0
  0
CLASS
  1
LAYOUT
  2
AcDbLayout
  3
ObjectDBX Classes
 90
        0
280
     0
281
     0
  0
ENDSEC
  0
SECTION
  2
TABLES
  0
TABLE
  2
VPORT
  5
8
330
0
100
AcDbSymbolTable
 70
     1
  0
VPORT
  5
29
330
8
100
AcDbSymbolTableRecord
100
AcDbViewportTableRecord
  2
*ACTIVE
 70
     0
 10
0.0
 20
0.0
 11
1.0
 21
1.0
 12
0.0
 22
0.0
 13
0.0
 23
0.0
 14
0.5
 24
0.5
 15
0.5
 25
0.5
 16
0.0
 26
0.0
 36
1.0
 17
420.5005276726528
 27
297.0000832590833
 37
0.0
 40
594.0001665181666
 41
1.415826295596812
 42
50.0
 43
0.0
 44
0.0
 50
0.0
 51
0.0
 71
     0
 72
   100
 73
     1
 74
     3
 75
     0
 76
     0
 77
     0
 78
     0
  0
ENDTAB
  0
TABLE
  2
LTYPE
  5
5
330
0
100
AcDbSymbolTable
 70
     1
  0
LTYPE
  5
14
330
5
100
AcDbSymbolTableRecord
100
AcDbLinetypeTableRecord
  2
BYBLOCK
 70
     0
  3

 72
    65
 73
     0
 40
0.0
  0
LTYPE
  5
15
330
5
100
AcDbSymbolTableRecord
100
AcDbLinetypeTableRecord
  2
BYLAYER
 70
     0
  3

 72
    65
 73
     0
 40
0.0
  0
LTYPE
  5
16
330
5
100
AcDbSymbolTableRecord
100
AcDbLinetypeTableRecord
  2
CONTINUOUS
 70
     0
  3
Solid line
 72
    65
 73
     0
 40
0.0
  0
ENDTAB
  0
TABLE
  2
LAYER
  5
2
330
0
100
AcDbSymbolTable
 70
     2
  0
LAYER
  5
10
330
2
100
AcDbSymbolTableRecord
100
AcDbLayerTableRecord
  2
0
 70
     0
 62
     7
  6
CONTINUOUS
  0
LAYER
  5
40
330
2
100
AcDbSymbolTableRecord
100
AcDbLayerTableRecord
  2
LAYER_1
 70
     0
 62
     7
  6
CONTINUOUS
  0
ENDTAB
  0
TABLE
  2
STYLE
  5
3
330
0
100
AcDbSymbolTable
 70
     1
  0
STYLE
  5
11
330
3
100
AcDbSymbolTableRecord
100
AcDbTextStyleTableRecord
  2
STANDARD
 70
     0
 40
0.0
 41
1.0
 50
0.0
 71
     0
 42
0.2
  3
txt
  4

  0
ENDTAB
  0
TABLE
  2
VIEW
  5
6
330
0
100
AcDbSymbolTable
 70
     0
  0
ENDTAB
  0
TABLE
  2
UCS
  5
7
330
0
100
AcDbSymbolTable
 70
     0
  0
ENDTAB
  0
TABLE
  2
APPID
  5
9
330
0
100
AcDbSymbolTable
 70
     1
  0
APPID
  5
12
330
9
100
AcDbSymbolTableRecord
100
AcDbRegAppTableRecord
  2
ACAD
 70
     0
  0
ENDTAB
  0
TABLE
  2
DIMSTYLE
  5
A
330
0
100
AcDbSymbolTable
 70
     1
  0
DIMSTYLE
105
27
330
A
100
AcDbSymbolTableRecord
100
AcDbDimStyleTableRecord
  2
STANDARD
 70
     0
  3

  4

  5

  6

  7

 40
1.0
 41
0.18
 42
0.0625
 43
0.38
 44
0.18
 45
0.0
 46
0.0
 47
0.0
 48
0.0
140
0.18
141
0.09
142
0.0
143
25.4
144
1.0
145
0.0
146
1.0
147
0.09
 71
     0
 72
     0
 73
     1
 74
     1
 75
     0
 76
     0
 77
     0
 78
     0
170
     0
171
     2
172
     0
173
     0
174
     0
175
     0
176
     0
177
     0
178
     0
270
     2
271
     4
272
     4
273
     2
274
     2
340
11
275
     0
280
     0
281
     0
282
     0
283
     1
284
     0
285
     0
286
     0
287
     3
288
     0
  0
ENDTAB
  0
TABLE
  2
BLOCK_RECORD
  5
1
330
0
100
AcDbSymbolTable
 70
     2
  0
BLOCK_RECORD
  5
1F
330
1
100
AcDbSymbolTableRecord
100
AcDbBlockTableRecord
  2
*MODEL_SPACE
  0
BLOCK_RECORD
  5
1B
330
1
100
AcDbSymbolTableRecord
100
AcDbBlockTableRecord
  2
*PAPER_SPACE
  0
BLOCK_RECORD
  5
41
330
1
100
AcDbSymbolTableRecord
100
AcDbBlockTableRecord
  2
BLOCK_2
  0
ENDTAB
  0
ENDSEC
  0
SECTION
  2
BLOCKS
  0
BLOCK
  5
20
330
1F
100
AcDbEntity
  8
0
100
AcDbBlockBegin
  2
*MODEL_SPACE
 70
     0
 10
0.0
 20
0.0
 30
0.0
  3
*MODEL_SPACE
  1

  0
ENDBLK
  5
21
330
1F
100
AcDbEntity
  8
0
100
AcDbBlockEnd
  0
BLOCK
  5
1C
330
1B
100
AcDbEntity
 67
     1
  8
0
100
AcDbBlockBegin
  2
*PAPER_SPACE
 70
     0
 10
0.0
 20
0.0
 30
0.0
  3
*PAPER_SPACE
  1

  0
ENDBLK
  5
1D
330
1B
100
AcDbEntity
 67
     1
  8
0
100
AcDbBlockEnd
  0
BLOCK
  5
43
330
41
100
AcDbEntity
  8
0
100
AcDbBlockBegin
  2
BLOCK_2
 70
     0
 10
0.0
 20
0.0
 30
0.0
  3
BLOCK_2
  1

  0
SPLINE
  5
45
330
41
100
AcDbEntity
  8
LAYER_1
 62
     7
100
AcDbSpline
210
0.0
220
0.0
230
1.0
 70
    11
 71
     3
 72
   911
 73
   907
 74
     0
 42
0.0000000001
 43
0.0000000001
 12
1.0
 22
0.0
 32
0.0
 13
1.0
 23
0.0
 33
0.0
 40
0.0
 40
0.0
 40
0.0
 40
0.0
 40
1.0
 40
1.0
 40
1.0
 40
2.0
 40
2.0
 40
2.0
 40
3.0
 40
3.0
 40
3.0
 40
4.0
 40
4.0
 40
4.0
 40
5.0
 40
5.0
 40
5.0
 40
6.0
 40
6.0
 40
6.0
 40
7.0
 40
7.0
 40
7.0
 40
8.0
 40
8.0
 40
8.0
 40
9.0
 40
9.0
 40
9.0
 40
10.0
 40
10.0
 40
10.0
 40
11.0
 40
11.0
 40
11.0
 40
12.0
 40
12.0
 40
12.0
 40
13.0
 40
13.0
 40
13.0
 40
14.0
 40
14.0
 40
14.0
 40
15.0
 40
15.0
 40
15.0
 40
16.0
 40
16.0
 40
16.0
 40
17.0
 40
17.0
 40
17.0
 40
18.0
 40
18.0
 40
18.0
 40
19.0
 40
19.0
 40
19.0
 40
20.0
 40
20.0
 40
20.0
 40
21.0
 40
21.0
 40
21.0
 40
22.0
 40
22.0
 40
22.0
 40
23.0
 40
23.0
 40
23.0
 40
24.0
 40
24.0
 40
24.0
 40
25.0
 40
25.0
 40
25.0
 40
26.0
 40
26.0
 40
26.0
 40
27.0
 40
27.0
 40
27.0
 40
28.0
 40
28.0
 40
28.0
 40
29.0
 40
29.0
 40
29.0
 40
30.0
 40
30.0
 40
30.0
 40
31.0
 40
31.0
 40
31.0
 40
32.0
 40
32.0
 40
32.0
 40
33.0
 40
33.0
 40
33.0
 40
34.0
 40
34.0
 40
34.0
 40
35.0
 40
35.0
 40
35.0
 40
36.0
 40
36.0
 40
36.0
 40
37.0
 40
37.0
 40
37.0
 40
38.0
 40
38.0
 40
38.0
 40
39.0
 40
39.0
 40
39.0
 40
40.0
 40
40.0
 40
40.0
 40
41.0
 40
41.0
 40
41.0
 40
42.0
 40
42.0
 40
42.0
 40
43.0
 40
43.0
 40
43.0
 40
44.0
 40
44.0
 40
44.0
 40
45.0
 40
45.0
 40
45.0
 40
46.0
 40
46.0
 40
46.0
 40
47.0
 40
47.0
 40
47.0
 40
48.0
 40
48.0
 40
48.0
 40
49.0
 40
49.0
 40
49.0
 40
50.0
 40
50.0
 40
50.0
 40
51.0
 40
51.0
 40
51.0
 40
52.0
 40
52.0
 40
52.0
 40
53.0
 40
53.0
 40
53.0
 40
54.0
 40
54.0
 40
54.0
 40
55.0
 40
55.0
 40
55.0
 40
56.0
 40
56.0
 40
56.0
 40
57.0
 40
57.0
 40
57.0
 40
58.0
 40
58.0
 40
58.0
 40
59.0
 40
59.0
 40
59.0
 40
60.0
 40
60.0
 40
60.0
 40
61.0
 40
61.0
 40
61.0
 40
62.0
 40
62.0
 40
62.0
 40
63.0
 40
63.0
 40
63.0
 40
64.0
 40
64.0
 40
64.0
 40
65.0
 40
65.0
 40
65.0
 40
66.0
 40
66.0
 40
66.0
 40
67.0
 40
67.0
 40
67.0
 40
68.0
 40
68.0
 40
68.0
 40
69.0
 40
69.0
 40
69.0
 40
70.0
 40
70.0
 40
70.0
 40
71.0
 40
71.0
 40
71.0
 40
72.0
 40
72.0
 40
72.0
 40
73.0
 40
73.0
 40
73.0
 40
74.0
 40
74.0
 40
74.0
 40
75.0
 40
75.0
 40
75.0
 40
76.0
 40
76.0
 40
76.0
 40
77.0
 40
77.0
 40
77.0
 40
78.0
 40
78.0
 40
78.0
 40
79.0
 40
79.0
 40
79.0
 40
80.0
 40
80.0
 40
80.0
 40
81.0
 40
81.0
 40
81.0
 40
82.0
 40
82.0
 40
82.0
 40
83.0
 40
83.0
 40
83.0
 40
84.0
 40
84.0
 40
84.0
 40
85.0
 40
85.0
 40
85.0
 40
86.0
 40
86.0
 40
86.0
 40
87.0
 40
87.0
 40
87.0
 40
88.0
 40
88.0
 40
88.0
 40
89.0
 40
89.0
 40
89.0
 40
90.0
 40
90.0
 40
90.0
 40
91.0
 40
91.0
 40
91.0
 40
92.0
 40
92.0
 40
92.0
 40
93.0
 40
93.0
 40
93.0
 40
94.0
 40
94.0
 40
94.0
 40
95.0
 40
95.0
 40
95.0
 40
96.0
 40
96.0
 40
96.0
 40
97.0
 40
97.0
 40
97.0
 40
98.0
 40
98.0
 40
98.0
 40
99.0
 40
99.0
 40
99.0
 40
100.0
 40
100.0
 40
100.0
 40
101.0
 40
101.0
 40
101.0
 40
102.0
 40
102.0
 40
102.0
 40
103.0
 40
103.0
 40
103.0
 40
104.0
 40
104.0
 40
104.0
 40
105.0
 40
105.0
 40
105.0
 40
106.0
 40
106.0
 40
106.0
 40
107.0
 40
107.0
 40
107.0
 40
108.0
 40
108.0
 40
108.0
 40
109.0
 40
109.0
 40
109.0
 40
110.0
 40
110.0
 40
110.0
 40
111.0
 40
111.0
 40
111.0
 40
112.0
 40
112.0
 40
112.0
 40
113.0
 40
113.0
 40
113.0
 40
114.0
 40
114.0
 40
114.0
 40
115.0
 40
115.0
 40
115.0
 40
116.0
 40
116.0
 40
116.0
 40
117.0
 40
117.0
 40
117.0
 40
118.0
 40
118.0
 40
118.0
 40
119.0
 40
119.0
 40
119.0
 40
120.0
 40
120.0
 40
120.0
 40
121.0
 40
121.0
 40
121.0
 40
122.0
 40
122.0
 40
122.0
 40
123.0
 40
123.0
 40
123.0
 40
124.0
 40
124.0
 40
124.0
 40
125.0
 40
125.0
 40
125.0
 40
126.0
 40
126.0
 40
126.0
 40
127.0
 40
127.0
 40
127.0
 40
128.0
 40
128.0
 40
128.0
 40
129.0
 40
129.0
 40
129.0
 40
130.0
 40
130.0
 40
130.0
 40
131.0
 40
131.0
 40
131.0
 40
132.0
 40
132.0
 40
132.0
 40
133.0
 40
133.0
 40
133.0
 40
134.0
 40
134.0
 40
134.0
 40
135.0
 40
135.0
 40
135.0
 40
136.0
 40
136.0
 40
136.0
 40
137.0
 40
137.0
 40
137.0
 40
138.0
 40
138.0
 40
138.0
 40
139.0
 40
139.0
 40
139.0
 40
140.0
 40
140.0
 40
140.0
 40
141.0
 40
141.0
 40
141.0
 40
142.0
 40
142.0
 40
142.0
 40
143.0
 40
143.0
 40
143.0
 40
144.0
 40
144.0
 40
144.0
 40
145.0
 40
145.0
 40
145.0
 40
146.0
 40
146.0
 40
146.0
 40
147.0
 40
147.0
 40
147.0
 40
148.0
 40
148.0
 40
148.0
 40
149.0
 40
149.0
 40
149.0
 40
150.0
 40
150.0
 40
150.0
 40
151.0
 40
151.0
 40
151.0
 40
152.0
 40
152.0
 40
152.0
 40
153.0
 40
153.0
 40
153.0
 40
154.0
 40
154.0
 40
154.0
 40
155.0
 40
155.0
 40
155.0
 40
156.0
 40
156.0
 40
156.0
 40
157.0
 40
157.0
 40
157.0
 40
158.0
 40
158.0
 40
158.0
 40
159.0
 40
159.0
 40
159.0
 40
160.0
 40
160.0
 40
160.0
 40
161.0
 40
161.0
 40
161.0
 40
162.0
 40
162.0
 40
162.0
 40
163.0
 40
163.0
 40
163.0
 40
164.0
 40
164.0
 40
164.0
 40
165.0
 40
165.0
 40
165.0
 40
166.0
 40
166.0
 40
166.0
 40
167.0
 40
167.0
 40
167.0
 40
168.0
 40
168.0
 40
168.0
 40
169.0
 40
169.0
 40
169.0
 40
170.0
 40
170.0
 40
170.0
 40
171.0
 40
171.0
 40
171.0
 40
172.0
 40
172.0
 40
172.0
 40
173.0
 40
173.0
 40
173.0
 40
174.0
 40
174.0
 40
174.0
 40
175.0
 40
175.0
 40
175.0
 40
176.0
 40
176.0
 40
176.0
 40
177.0
 40
177.0
 40
177.0
 40
178.0
 40
178.0
 40
178.0
 40
179.0
 40
179.0
 40
179.0
 40
180.0
 40
180.0
 40
180.0
 40
181.0
 40
181.0
 40
181.0
 40
182.0
 40
182.0
 40
182.0
 40
183.0
 40
183.0
 40
183.0
 40
184.0
 40
184.0
 40
184.0
 40
185.0
 40
185.0
 40
185.0
 40
186.0
 40
186.0
 40
186.0
 40
187.0
 40
187.0
 40
187.0
 40
188.0
 40
188.0
 40
188.0
 40
189.0
 40
189.0
 40
189.0
 40
190.0
 40
190.0
 40
190.0
 40
191.0
 40
191.0
 40
191.0
 40
192.0
 40
192.0
 40
192.0
 40
193.0
 40
193.0
 40
193.0
 40
194.0
 40
194.0
 40
194.0
 40
195.0
 40
195.0
 40
195.0
 40
196.0
 40
196.0
 40
196.0
 40
197.0
 40
197.0
 40
197.0
 40
198.0
 40
198.0
 40
198.0
 40
199.0
 40
199.0
 40
199.0
 40
200.0
 40
200.0
 40
200.0
 40
201.0
 40
201.0
 40
201.0
 40
202.0
 40
202.0
 40
202.0
 40
203.0
 40
203.0
 40
203.0
 40
204.0
 40
204.0
 40
204.0
 40
205.0
 40
205.0
 40
205.0
 40
206.0
 40
206.0
 40
206.0
 40
207.0
 40
207.0
 40
207.0
 40
208.0
 40
208.0
 40
208.0
 40
209.0
 40
209.0
 40
209.0
 40
210.0
 40
210.0
 40
210.0
 40
211.0
 40
211.0
 40
211.0
 40
212.0
 40
212.0
 40
212.0
 40
213.0
 40
213.0
 40
213.0
 40
214.0
 40
214.0
 40
214.0
 40
215.0
 40
215.0
 40
215.0
 40
216.0
 40
216.0
 40
216.0
 40
217.0
 40
217.0
 40
217.0
 40
218.0
 40
218.0
 40
218.0
 40
219.0
 40
219.0
 40
219.0
 40
220.0
 40
220.0
 40
220.0
 40
221.0
 40
221.0
 40
221.0
 40
222.0
 40
222.0
 40
222.0
 40
223.0
 40
223.0
 40
223.0
 40
224.0
 40
224.0
 40
224.0
 40
225.0
 40
225.0
 40
225.0
 40
226.0
 40
226.0
 40
226.0
 40
227.0
 40
227.0
 40
227.0
 40
228.0
 40
228.0
 40
228.0
 40
229.0
 40
229.0
 40
229.0
 40
230.0
 40
230.0
 40
230.0
 40
231.0
 40
231.0
 40
231.0
 40
232.0
 40
232.0
 40
232.0
 40
233.0
 40
233.0
 40
233.0
 40
234.0
 40
234.0
 40
234.0
 40
235.0
 40
235.0
 40
235.0
 40
236.0
 40
236.0
 40
236.0
 40
237.0
 40
237.0
 40
237.0
 40
238.0
 40
238.0
 40
238.0
 40
239.0
 40
239.0
 40
239.0
 40
240.0
 40
240.0
 40
240.0
 40
241.0
 40
241.0
 40
241.0
 40
242.0
 40
242.0
 40
242.0
 40
243.0
 40
243.0
 40
243.0
 40
244.0
 40
244.0
 40
244.0
 40
245.0
 40
245.0
 40
245.0
 40
246.0
 40
246.0
 40
246.0
 40
247.0
 40
247.0
 40
247.0
 40
248.0
 40
248.0
 40
248.0
 40
249.0
 40
249.0
 40
249.0
 40
250.0
 40
250.0
 40
250.0
 40
251.0
 40
251.0
 40
251.0
 40
252.0
 40
252.0
 40
252.0
 40
253.0
 40
253.0
 40
253.0
 40
254.0
 40
254.0
 40
254.0
 40
255.0
 40
255.0
 40
255.0
 40
256.0
 40
256.0
 40
256.0
 40
257.0
 40
257.0
 40
257.0
 40
258.0
 40
258.0
 40
258.0
 40
259.0
 40
259.0
 40
259.0
 40
260.0
 40
260.0
 40
260.0
 40
261.0
 40
261.0
 40
261.0
 40
262.0
 40
262.0
 40
262.0
 40
263.0
 40
263.0
 40
263.0
 40
264.0
 40
264.0
 40
264.0
 40
265.0
 40
265.0
 40
265.0
 40
266.0
 40
266.0
 40
266.0
 40
267.0
 40
267.0
 40
267.0
 40
268.0
 40
268.0
 40
268.0
 40
269.0
 40
269.0
 40
269.0
 40
270.0
 40
270.0
 40
270.0
 40
271.0
 40
271.0
 40
271.0
 40
272.0
 40
272.0
 40
272.0
 40
273.0
 40
273.0
 40
273.0
 40
274.0
 40
274.0
 40
274.0
 40
275.0
 40
275.0
 40
275.0
 40
276.0
 40
276.0
 40
276.0
 40
277.0
 40
277.0
 40
277.0
 40
278.0
 40
278.0
 40
278.0
 40
279.0
 40
279.0
 40
279.0
 40
280.0
 40
280.0
 40
280.0
 40
281.0
 40
281.0
 40
281.0
 40
282.0
 40
282.0
 40
282.0
 40
283.0
 40
283.0
 40
283.0
 40
284.0
 40
284.0
 40
284.0
 40
285.0
 40
285.0
 40
285.0
 40
286.0
 40
286.0
 40
286.0
 40
287.0
 40
287.0
 40
287.0
 40
288.0
 40
288.0
 40
288.0
 40
289.0
 40
289.0
 40
289.0
 40
290.0
 40
290.0
 40
290.0
 40
291.0
 40
291.0
 40
291.0
 40
292.0
 40
292.0
 40
292.0
 40
293.0
 40
293.0
 40
293.0
 40
294.0
 40
294.0
 40
294.0
 40
295.0
 40
295.0
 40
295.0
 40
296.0
 40
296.0
 40
296.0
 40
297.0
 40
297.0
 40
297.0
 40
298.0
 40
298.0
 40
298.0
 40
299.0
 40
299.0
 40
299.0
 40
300.0
 40
300.0
 40
300.0
 40
301.0
 40
301.0
 40
301.0
 40
302.0
 40
302.0
 40
302.0
 40
302.0
 10
397.6347403485894
 20
371.1825812789356
 30
0.0
 10
398.932933071857
 20
369.5832407822126
 30
0.0
 10
400.2311271408649
 20
367.9838999490544
 30
0.0
 10
401.5391538622804
 20
366.372445938123
 30
0.0
 10
402.8471805836958
 20
364.7609919271915
 30
0.0
 10
404.1650399575186
 20
363.1374247384867
 30
0.0
 10
405.5025632904158
 20
361.4896315306705
 30
0.0
 10
406.4231708570192
 20
362.3358640612647
 30
0.0
 10
407.1567124302543
 20
362.2053810697609
 30
0.0
 10
407.8013368964594
 20
361.7423215465062
 30
0.0
 10
408.4459613626644
 20
361.2792620232514
 30
0.0
 10
409.0016687218395
 20
360.4836259682457
 30
0.0
 10
409.5666078603227
 20
359.9995523718362
 30
0.0
 10
411.3786042774451
 20
358.4469359826319
 30
0.0
 10
412.8949374862098
 20
356.6824230070624
 30
0.0
 10
414.1440389445529
 20
354.7361060513997
 30
0.0
 10
415.3931404028961
 20
352.7897890957371
 30
0.0
 10
416.3750101108178
 20
350.6616681599813
 30
0.0
 10
417.1180795262543
 20
348.3818358504046
 30
0.0
 10
417.265212018283
 20
347.9304206826029
 30
0.0
 10
417.5217505152959
 20
347.5146642716842
 30
0.0
 10
417.8088299183597
 20
347.1068558037093
 30
0.0
 10
418.0959093214234
 20
346.6990473357343
 30
0.0
 10
418.413529630538
 20
346.2991868107031
 30
0.0
 10
418.6828257467698
 20
345.8795634146762
 30
0.0
 10
420.3095110160367
 20
348.8036151225905
 30
0.0
 10
421.9161676305744
 20
351.6916615454626
 30
0.0
 10
423.5128085720071
 20
354.5617054940313
 30
0.0
 10
425.1094495134397
 20
357.4317494425999
 30
0.0
 10
426.6960747817673
 20
360.283790916865
 30
0.0
 10
428.282697358614
 20
363.1358327275653
 30
0.0
 10
428.3631887848499
 20
363.1150047030242
 30
0.0
 10
428.4436802110857
 20
363.0941763420479
 30
0.0
 10
428.5241716373216
 20
363.0733478128542
 30
0.0
 10
428.6046630635574
 20
363.0525192836604
 30
0.0
 10
428.6851544897933
 20
363.0316905862491
 30
0.0
 10
428.7656459160291
 20
363.0108618888378
 30
0.0
 10
428.7344462700408
 20
362.3253686316986
 30
0.0
 10
428.754309398698
 20
361.628087697751
 30
0.0
 10
428.7440198674166
 20
360.9377676061462
 30
0.0
 10
428.7337303361353
 20
360.2474475145414
 30
0.0
 10
428.6932881449155
 20
359.5640882652793
 30
0.0
 10
428.5414778591733
 20
358.9064383775111
 30
0.0
 10
428.0130271265444
 20
356.6171428212733
 30
0.0
 10
427.7090378221838
 20
354.3614961585952
 30
0.0
 10
427.7607748127816
 20
352.1155923201513
 30
0.0
 10
427.8125118033795
 20
349.8696884817074
 30
0.0
 10
428.2199750889357
 20
347.6335274674977
 30
0.0
 10
429.1144295361404
 20
345.3832032081963
 30
0.0
 10
429.5024011173966
 20
344.4071255670592
 30
0.0
 10
429.7038719162625
 20
343.3569178146701
 30
0.0
 10
429.8606331810243
 20
342.2510192863177
 30
0.0
 10
430.0173944457861
 20
341.1451207579653
 30
0.0
 10
430.1294461764439
 20
339.9835314536496
 30
0.0
 10
430.3385796212837
 20
338.7846907086591
 30
0.0
 10
430.5040195660394
 20
339.070675351888
 30
0.0
 10
430.6474593463448
 20
339.3452777226113
 30
0.0
 10
430.7915800713047
 20
339.6056075068336
 30
0.0
 10
430.9357007962646
 20
339.8659372910558
 30
0.0
 10
431.080502465879
 20
340.1119944887771
 30
0.0
 10
431.2486661892527
 20
340.3408887860018
 30
0.0
 10
432.4740543555859
 20
342.00881427056
 30
0.0
 10
433.6501345927865
 20
343.7220669840768
 30
0.0
 10
434.8650502071407
 20
345.4005121215288
 30
0.0
 10
436.0799658214949
 20
347.0789572589809
 30
0.0
 10
437.3337168130028
 20
348.722594820368
 30
0.0
 10
438.7144464879505
 20
350.2512900006669
 30
0.0
 10
439.5297498663817
 20
351.1539534644576
 30
0.0
 10
440.5552713564343
 20
351.8632838217259
 30
0.0
 10
441.6324194863699
 20
352.5281774937611
 30
0.0
 10
442.7095676163056
 20
353.1930711657962
 30
0.0
 10
443.8383423861243
 20
353.8135281525982
 30
0.0
 10
444.8601523240877
 20
354.5384448754564
 30
0.0
 10
445.993481079501
 20
355.3424817150585
 30
0.0
 10
447.1126553371354
 20
356.1664718479261
 30
0.0
 10
448.2655511583126
 20
357.0239963181999
 30
0.0
 10
449.4184469794898
 20
357.8815207884737
 30
0.0
 10
450.6050643642096
 20
358.7725795961538
 30
0.0
 10
451.8732793737939
 20
359.7107537853809
 30
0.0
 10
450.407003671578
 20
354.8199582961268
 30
0.0
 10
448.5840394700006
 20
350.2023592152881
 30
0.0
 10
446.5296994258567
 20
345.7341401812035
 30
0.0
 10
444.475359381713
 20
341.265921147119
 30
0.0
 10
442.1896434950027
 20
336.9470821597886
 30
0.0
 10
439.7978644225212
 20
332.6538068575511
 30
0.0
 10
443.0094847101434
 20
335.0907530158808
 30
0.0
 10
446.2166802032516
 20
337.4924636526908
 30
0.0
 10
449.6634390236654
 20
339.3937122662089
 30
0.0
 10
453.1101978440793
 20
341.2949608797269
 30
0.0
 10
456.7965199917986
 20
342.6957474699528
 30
0.0
 10
460.966393588643
 20
343.1308455351144
 30
0.0
 10
460.9126447161114
 20
343.0711619473133
 30
0.0
 10
460.8602523499271
 20
342.9868257406863
 30
0.0
 10
460.8070834915182
 20
342.9166305744339
 30
0.0
 10
460.7539146331093
 20
342.8464354081815
 30
0.0
 10
460.6999692824759
 20
342.7903812823037
 30
0.0
 10
460.6431144410458
 20
342.7872618560011
 30
0.0
 10
459.4167950223393
 20
342.7199707975835
 30
0.0
 10
458.4880887898648
 20
342.2711327226937
 30
0.0
 10
457.6697117403053
 20
341.6298601594495
 30
0.0
 10
456.8513346907459
 20
340.9885875962053
 30
0.0
 10
456.1432868241017
 20
340.1548805446067
 30
0.0
 10
455.3582841370556
 20
339.3178515327717
 30
0.0
 10
453.1523625830417
 20
336.9657247018812
 30
0.0
 10
450.8591616880936
 20
334.695341508691
 30
0.0
 10
448.5378415469876
 20
332.451456280883
 30
0.0
 10
446.2165214058816
 20
330.207571053075
 30
0.0
 10
443.8670820186177
 20
327.9901837906492
 30
0.0
 10
441.548683479972
 20
325.7440488212875
 30
0.0
 10
441.2668639033552
 20
325.4710142381581
 30
0.0
 10
440.964389902712
 20
325.2192988748245
 30
0.0
 10
440.6563754887434
 20
324.9733022354224
 30
0.0
 10
440.3483610747749
 20
324.7273055960202
 30
0.0
 10
440.034806247481
 20
324.4870276805495
 30
0.0
 10
439.7308250175629
 20
324.236867993146
 30
0.0
 10
439.7925191415574
 20
324.1755506764702
 30
0.0
 10
439.8542132655519
 20
324.1142347055349
 30
0.0
 10
439.9159060438059
 20
324.0529187345996
 30
0.0
 10
439.9775988220599
 20
323.9916027636643
 30
0.0
 10
440.0392902545735
 20
323.9302867927289
 30
0.0
 10
440.1009789956063
 20
323.8689694760532
 30
0.0
 10
441.1838909317776
 20
324.2476958205969
 30
0.0
 10
442.2590756264348
 20
324.6539035303376
 30
0.0
 10
443.3391009493968
 20
325.0428830711712
 30
0.0
 10
444.4191262723588
 20
325.4318626120048
 30
0.0
 10
445.5039922236256
 20
325.8036139839313
 30
0.0
 10
446.6062666730164
 20
326.1134276528467
 30
0.0
 10
447.9760958505304
 20
326.4984386051701
 30
0.0
 10
449.353202792257
 20
326.8907152100423
 30
0.0
 10
450.7391377911645
 20
327.2294582608508
 30
0.0
 10
452.1250727900721
 20
327.5682013116593
 30
0.0
 10
453.5198358461606
 20
327.853410808404
 30
0.0
 10
454.9249772523983
 20
328.0242875444724
 30
0.0
 10
455.9475515709225
 20
328.1486393426048
 30
0.0
 10
457.0018934378939
 20
328.1400279496321
 30
0.0
 10
458.0551560210453
 20
328.0472129054642
 30
0.0
 10
459.1084186041967
 20
327.9543978612962
 30
0.0
 10
460.1606019035281
 20
327.777379165933
 30
0.0
 10
461.1788590867724
 20
327.5649163592844
 30
0.0
 10
461.6394145235333
 20
327.4688197270928
 30
0.0
 10
462.0519458675261
 20
327.1425664931588
 30
0.0
 10
462.4396065827442
 20
326.763452575373
 30
0.0
 10
462.8272672979624
 20
326.3843386575871
 30
0.0
 10
463.190057384406
 20
325.9523640559495
 30
0.0
 10
463.5511303060686
 20
325.6448246883506
 30
0.0
 10
462.6208253339705
 20
325.1514116533991
 30
0.0
 10
461.7350751358276
 20
324.6783246818106
 30
0.0
 10
460.8701004783494
 20
324.218284663632
 30
0.0
 10
460.0051258208711
 20
323.7582446454534
 30
0.0
 10
459.1609267040574
 20
323.3112515806848
 30
0.0
 10
458.3137238946176
 20
322.8700263593731
 30
0.0
 10
456.9136317064503
 20
322.140853059554
 30
0.0
 10
455.5048029714509
 20
321.4277102196648
 30
0.0
 10
454.100708551263
 20
320.7060629731665
 30
0.0
 10
452.696614131075
 20
319.9844157266683
 30
0.0
 10
451.2972540256984
 20
319.254264073561
 30
0.0
 10
449.9160990967766
 20
318.4910731473059
 30
0.0
 10
449.4496170191887
 20
318.2333073350264
 30
0.0
 10
448.9887628280537
 20
317.9258594777763
 30
0.0
 10
448.5630351534639
 20
317.5786483553503
 30
0.0
 10
448.1373074788742
 20
317.2314372329243
 30
0.0
 10
447.7467063208297
 20
316.8444628453223
 30
0.0
 10
447.420730309423
 20
316.427643972339
 30
0.0
 10
446.7143834586746
 20
315.5244610527446
 30
0.0
 10
445.927426756533
 20
314.7896410261067
 30
0.0
 10
445.048234351476
 20
314.1766818320767
 30
0.0
 10
444.169041946419
 20
313.5637226380466
 30
0.0
 10
443.1976138384465
 20
313.0726242766241
 30
0.0
 10
442.1223241760363
 20
312.6568846874608
 30
0.0
 10
440.4005408139722
 20
311.9912007293617
 30
0.0
 10
438.7431807374822
 20
311.1914635304141
 30
0.0
 10
437.1874173342965
 20
310.2227006613512
 30
0.0
 10
435.6316539311108
 20
309.2539377922883
 30
0.0
 10
434.1774872012294
 20
308.1161492531101
 30
0.0
 10
432.8620905323824
 20
306.7743626145499
 30
0.0
 10
432.5146795675034
 20
306.419980714275
 30
0.0
 10
432.1318702465135
 20
306.0979356106466
 30
0.0
 10
431.7561314457109
 20
305.7705075453225
 30
0.0
 10
431.3803926449083
 20
305.4430794799984
 30
0.0
 10
431.011724364293
 20
305.1102684529786
 30
0.0
 10
430.6925954801632
 20
304.7343547059209
 30
0.0
 10
430.4326576428394
 20
304.4281745361502
 30
0.0
 10
430.2224206908521
 20
304.0798013668681
 30
0.0
 10
430.0637457832074
 20
303.7041076483697
 30
0.0
 10
429.9050708755628
 20
303.3284139298713
 30
0.0
 10
429.7979580122608
 20
302.9253996621566
 30
0.0
 10
429.7442683523079
 20
302.5099372955206
 30
0.0
 10
431.9008173816488
 20
303.9422841901684
 30
0.0
 10
434.0717012379855
 20
305.354151607045
 30
0.0
 10
436.2335349899712
 20
306.7789495707848
 30
0.0
 10
438.3953687419569
 20
308.2037475345247
 30
0.0
 10
440.5481523895917
 20
309.6414760451279
 30
0.0
 10
442.6685010015291
 20
311.1255451272289
 30
0.0
 10
445.1119565062893
 20
312.8357578131282
 30
0.0
 10
447.7012445178287
 20
313.8483871099195
 30
0.0
 10
450.3919515649363
 20
314.381912629687
 30
0.0
 10
453.082658612044
 20
314.9154381494545
 30
0.0
 10
455.87478469472
 20
314.969859892198
 30
0.0
 10
458.7239163417535
 20
314.7636574700016
 30
0.0
 10
459.4750817315804
 20
314.7092949398367
 30
0.0
 10
459.8806367572155
 20
314.3519174213781
 30
0.0
 10
460.0910728787856
 20
313.8516956127518
 30
0.0
 10
460.3015090003557
 20
313.3514738041254
 30
0.0
 10
460.3168262178608
 20
312.7084077053312
 30
0.0
 10
460.2875159914277
 20
312.0826680144951
 30
0.0
 10
458.5741408155322
 20
311.5663989241836
 30
0.0
 10
456.8739888850423
 20
311.0541145712674
 30
0.0
 10
455.1635985614071
 20
310.5387451084293
 30
0.0
 10
453.4532082377719
 20
310.0233756455912
 30
0.0
 10
451.7325795209916
 20
309.5049210728313
 30
0.0
 10
449.9782507725152
 20
308.9763115428324
 30
0.0
 10
450.3247520168676
 20
307.9277913489349
 30
0.0
 10
450.654501484423
 20
306.9299598138451
 30
0.0
 10
450.9779004029178
 20
305.9513441062684
 30
0.0
 10
451.3012993214127
 20
304.9727283986917
 30
0.0
 10
451.6183476908471
 20
304.0133285186283
 30
0.0
 10
451.9394467389574
 20
303.0416716347838
 30
0.0
 10
450.0235806929547
 20
302.6663930772061
 30
0.0
 10
448.1484179118141
 20
302.2990880316403
 30
0.0
 10
446.3268357856521
 20
301.9422784156406
 30
0.0
 10
444.5052536594901
 20
301.5854687996409
 30
0.0
 10
442.7372521883066
 20
301.2391546132075
 30
0.0
 10
441.0357087622183
 20
300.9058577738946
 30
0.0
 10
441.3259526738889
 20
300.0948311585307
 30
0.0
 10
441.556095818227
 20
299.3642354110835
 30
0.0
 10
441.788213163767
 20
298.6901796018072
 30
0.0
 10
442.020330509307
 20
298.0161237925309
 30
0.0
 10
442.2544220560488
 20
297.3986079214254
 30
0.0
 10
442.552562772527
 20
296.8137410587447
 30
0.0
 10
442.7036248265935
 20
296.5173874855495
 30
0.0
 10
442.9542958953582
 20
296.2479648697179
 30
0.0
 10
443.245924573925
 20
296.0132354420151
 30
0.0
 10
443.5375532524918
 20
295.7785060143122
 30
0.0
 10
443.8701395408608
 20
295.5784697747382
 30
0.0
 10
444.185032034136
 20
295.4208889540582
 30
0.0
 10
446.6240089147655
 20
294.2003750595405
 30
0.0
 10
448.9339696609531
 20
292.8329359170194
 30
0.0
 10
450.9916215722802
 20
291.1695933514749
 30
0.0
 10
453.0492734836073
 20
289.5062507859303
 30
0.0
 10
454.8546165600738
 20
287.5470047973624
 30
0.0
 10
456.284358101261
 20
285.142877210751
 30
0.0
 10
456.343317680714
 20
285.0437230563161
 30
0.0
 10
456.3988617709711
 20
284.9423484301818
 30
0.0
 10
456.4517870503632
 20
284.8395903828917
 30
0.0
 10
456.5047123297554
 20
284.7368323356015
 30
0.0
 10
456.5550187982826
 20
284.6326908671556
 30
0.0
 10
456.6035031342758
 20
284.5280030280976
 30
0.0
 10
456.6130202105538
 20
284.5074347314583
 30
0.0
 10
456.6067786664676
 20
284.4795644472788
 30
0.0
 10
456.587047420372
 20
284.4145032807437
 30
0.0
 10
456.5673161742764
 20
284.3494421142086
 30
0.0
 10
456.5340952261714
 20
284.2471900653179
 30
0.0
 10
456.4896534944117
 20
284.0778582392562
 30
0.0
 10
456.0972678845651
 20
284.2101068421962
 30
0.0
 10
455.7096004406448
 20
284.340767471436
 30
0.0
 10
455.3025449144371
 20
284.477961670434
 30
0.0
 10
454.8954893882293
 20
284.6151558694319
 30
0.0
 10
454.469045779734
 20
284.758883638188
 30
0.0
 10
453.9991078407375
 20
284.9172665201607
 30
0.0
 10
454.3898570302285
 20
284.1457535351241
 30
0.0
 10
454.7719019706576
 20
283.391425655301
 30
0.0
 10
455.1711158674152
 20
282.6031999199396
 30
0.0
 10
455.5703297641728
 20
281.8149741845783
 30
0.0
 10
455.9867126172588
 20
280.9928505936787
 30
0.0
 10
456.4461376320636
 20
280.085746186489
 30
0.0
 10
455.5137386878658
 20
280.7225505550907
 30
0.0
 10
454.6853089573397
 20
281.2883455844834
 30
0.0
 10
453.9088638336494
 20
281.8186372900122
 30
0.0
 10
453.1324187099591
 20
282.348928995541
 30
0.0
 10
452.4079581931046
 20
282.8437173772057
 30
0.0
 10
451.6834976762502
 20
283.3385084503514
 30
0.0
 10
451.6141059170308
 20
283.2938675490089
 30
0.0
 10
451.5447168492924
 20
283.2492239561856
 30
0.0
 10
451.4753277815539
 20
283.2045803633623
 30
0.0
 10
451.4059387138155
 20
283.159936770539
 30
0.0
 10
451.336549646077
 20
283.1152931777157
 30
0.0
 10
451.2671578868577
 20
283.0706522763732
 30
0.0
 10
451.5238067345854
 20
282.3008456901941
 30
0.0
 10
451.8166667656402
 20
281.5381903686278
 30
0.0
 10
452.0843627965079
 20
280.7705638819355
 30
0.0
 10
452.3520588273756
 20
280.0029373952431
 30
0.0
 10
452.5945908580563
 20
279.2303397434248
 30
0.0
 10
452.7505837050361
 20
278.4406484967419
 30
0.0
 10
452.8386435754161
 20
277.9948692898356
 30
0.0
 10
452.8467207094405
 20
277.4779219463505
 30
0.0
 10
452.7715799471302
 20
276.9836314886426
 30
0.0
 10
452.6964391848199
 20
276.4893410309347
 30
0.0
 10
452.5380805261748
 20
276.0177074590039
 30
0.0
 10
452.293268811216
 20
275.6625557952066
 30
0.0
 10
452.1665000632822
 20
275.4786469088729
 30
0.0
 10
451.7473799741739
 20
275.420745081393
 30
0.0
 10
451.2704751370027
 20
275.4481860743773
 30
0.0
 10
450.7935702998315
 20
275.4756270673616
 30
0.0
 10
450.2588807145973
 20
275.5884108808099
 30
0.0
 10
449.9009729744117
 20
275.7458732763326
 30
0.0
 10
449.1263324886299
 20
276.0866739642493
 30
0.0
 10
448.3804854649584
 20
276.492926083424
 30
0.0
 10
447.5904160652163
 20
276.9482909993699
 30
0.0
 10
446.8003466654741
 20
277.4036559153157
 30
0.0
 10
445.9660548896614
 20
277.9081336280328
 30
0.0
 10
445.0145248995971
 20
278.4453855030341
 30
0.0
 10
445.1727139949487
 20
277.1973781316555
 30
0.0
 10
445.3116697681616
 20
276.1011056845555
 30
0.0
 10
445.4410088803051
 20
275.0807006995946
 30
0.0
 10
445.5703479924486
 20
274.0602957146338
 30
0.0
 10
445.6900704435227
 20
273.1157581918122
 30
0.0
 10
445.8097928945969
 20
272.1712206689906
 30
0.0
 10
445.7249735671576
 20
272.1539575108325
 30
0.0
 10
445.6401569311993
 20
272.1366970441553
 30
0.0
 10
445.555340295241
 20
272.119436577478
 30
0.0
 10
445.4705236592826
 20
272.1021761108007
 30
0.0
 10
445.3857070233243
 20
272.0849156441234
 30
0.0
 10
445.3008876958851
 20
272.0676524859653
 30
0.0
 10
445.0037805080524
 20
272.86538049446
 30
0.0
 10
444.6936196381077
 20
273.6588236654449
 30
0.0
 10
444.3914591949833
 20
274.4548910302565
 30
0.0
 10
444.0892987518588
 20
275.250958395068
 30
0.0
 10
443.7951387355546
 20
276.0496499537063
 30
0.0
 10
443.5300332550029
 20
276.8578747375075
 30
0.0
 10
443.0909127717143
 20
278.1966011623438
 30
0.0
 10
442.744037411524
 20
278.9504607244994
 30
0.0
 10
442.1206689153149
 20
279.305553175718
 30
0.0
 10
441.4973004191057
 20
279.6606456269368
 30
0.0
 10
440.5974387868775
 20
279.6169709672187
 30
0.0
 10
439.0523457595132
 20
279.3606289483076
 30
0.0
 10
440.0667164444131
 20
276.5401185086102
 30
0.0
 10
441.0771656417178
 20
273.7305166407891
 30
0.0
 10
442.0923679941997
 20
270.9076996020051
 30
0.0
 10
443.1075703466816
 20
268.084882563221
 30
0.0
 10
444.1275258543409
 20
265.248850353474
 30
0.0
 10
445.1609091599501
 20
262.3754792299248
 30
0.0
 10
445.3314413864699
 20
262.3846894773861
 30
0.0
 10
445.5199742369002
 20
262.3948713494336
 30
0.0
 10
445.7127206005978
 20
262.4052806516127
 30
0.0
 10
445.9054669642954
 20
262.4156899537917
 30
0.0
 10
446.1024268412604
 20
262.4263266861024
 30
0.0
 10
446.2898131208494
 20
262.4364466540903
 30
0.0
 10
446.4238650159575
 20
260.2754297665419
 30
0.0
 10
446.5577634966573
 20
258.1169240306246
 30
0.0
 10
446.6931624779297
 20
255.9342299563276
 30
0.0
 10
446.8285614592021
 20
253.7515358820306
 30
0.0
 10
446.9654609410473
 20
251.544653469354
 30
0.0
 10
447.1055148384461
 20
249.286883228287
 30
0.0
 10
447.4126181861476
 20
249.4300753923544
 30
0.0
 10
447.6730351070623
 20
249.5515015508052
 30
0.0
 10
447.8933462718632
 20
249.6542286460656
 30
0.0
 10
448.1136574366641
 20
249.756955741326
 30
0.0
 10
448.2938628453512
 20
249.8409837733959
 30
0.0
 10
448.4405431685973
 20
249.9093796847015
 30
0.0
 10
448.2266458026569
 20
248.6160693076919
 30
0.0
 10
447.8771274082741
 20
247.3610075650112
 30
0.0
 10
447.6494725379798
 20
246.0942136573146
 30
0.0
 10
447.4218176676856
 20
244.8274197496181
 30
0.0
 10
447.3160263214799
 20
243.5488936769057
 30
0.0
 10
447.5895830518938
 20
242.208654639833
 30
0.0
 10
447.6484618869214
 20
241.9201763395986
 30
0.0
 10
447.5949633221087
 20
241.5961678006917
 30
0.0
 10
447.494187550463
 20
241.2700208802512
 30
0.0
 10
447.3934117788174
 20
240.9438739598107
 30
0.0
 10
447.2453588003387
 20
240.6155886578366
 30
0.0
 10
447.1151288080346
 20
240.3185568314677
 30
0.0
 10
446.7629969857485
 20
239.5154243294305
 30
0.0
 10
446.4460185948162
 20
238.7334091861256
 30
0.0
 10
446.2902114600149
 20
237.9187813693872
 30
0.0
 10
446.1344043252137
 20
237.1041535526489
 30
0.0
 10
446.1397684465434
 20
236.2569130624771
 30
0.0
 10
446.4323216487815
 20
235.3233298667063
 30
0.0
 10
446.5646563791086
 20
234.9010203727933
 30
0.0
 10
446.4771509537833
 20
234.4098224265796
 30
0.0
 10
446.3250392221861
 20
233.878801329741
 30
0.0
 10
446.172927490589
 20
233.3477802329025
 30
0.0
 10
445.95620945272
 20
232.7769359854391
 30
0.0
 10
445.8301189579598
 20
232.1953338890269
 30
0.0
 10
446.4841918676813
 20
231.9862596567658
 30
0.0
 10
446.8768627744977
 20
231.6627732651434
 30
0.0
 10
446.9866025231071
 20
231.1971268923587
 30
0.0
 10
447.0963422717166
 20
230.7314805195741
 30
0.0
 10
446.9231508621191
 20
230.1236741656272
 30
0.0
 10
446.4454991390126
 20
229.3459600087171
 30
0.0
 10
446.1266986155463
 20
228.826907927209
 30
0.0
 10
445.950955682105
 20
228.2221160318117
 30
0.0
 10
445.8073772905359
 20
227.5959537784824
 30
0.0
 10
445.6637988989668
 20
226.9697915251532
 30
0.0
 10
445.55238504927
 20
226.322258913892
 30
0.0
 10
445.3622426932927
 20
225.7177254006561
 30
0.0
 10
445.2911230033691
 20
225.4916033287047
 30
0.0
 10
445.1799137062167
 20
225.2776655905515
 30
0.0
 10
445.0559777418753
 20
225.0681055459974
 30
0.0
 10
444.9320417775338
 20
224.8585455014432
 30
0.0
 10
444.7953791460033
 20
224.6533631504881
 30
0.0
 10
444.6733527873234
 20
224.4447518529329
 30
0.0
 10
444.6453829183525
 20
224.3969296212283
 30
0.0
 10
444.5802033266601
 20
224.346800790437
 30
0.0
 10
444.5236391651617
 20
224.3053869746311
 30
0.0
 10
444.4670750036632
 20
224.2639731588253
 30
0.0
 10
444.4191262723588
 20
224.2312743580047
 30
0.0
 10
444.4256181241638
 20
224.2183121862414
 30
0.0
 10
444.9296302106941
 20
223.210955500431
 30
0.0
 10
444.4987160525106
 20
222.6363674031083
 30
0.0
 10
443.9308754976735
 20
222.1182062017608
 30
0.0
 10
443.3630349428363
 20
221.6000450004132
 30
0.0
 10
442.6582679913456
 20
221.138310695041
 30
0.0
 10
442.6145744912615
 20
220.3566615931313
 30
0.0
 10
442.6043630129248
 20
220.1739046606005
 30
0.0
 10
442.4160078002304
 20
219.9866206572836
 30
0.0
 10
442.1719833434196
 20
219.8111374517441
 30
0.0
 10
441.9279588866087
 20
219.6356542462046
 30
0.0
 10
441.6282651856813
 20
219.4719718384426
 30
0.0
 10
441.3953767308784
 20
219.3364180970214
 30
0.0
 10
440.8454748958922
 20
219.0163525775566
 30
0.0
 10
440.2776827877103
 20
218.7255649867547
 30
0.0
 10
439.7140032622639
 20
218.4288467179046
 30
0.0
 10
439.1503237368175
 20
218.1321284490545
 30
0.0
 10
438.5907567941067
 20
217.8294795021561
 30
0.0
 10
438.0573052900625
 20
217.4856912704984
 30
0.0
 10
437.8771160302605
 20
217.369564637837
 30
0.0
 10
437.7582387041726
 20
217.1624040484587
 30
0.0
 10
437.6518175514486
 20
216.9332015766769
 30
0.0
 10
437.5453963987246
 20
216.7039991048952
 30
0.0
 10
437.4514314193644
 20
216.4527547507099
 30
0.0
 10
437.3210668530178
 20
216.2484605884347
 30
0.0
 10
437.2201470871468
 20
216.0903091738149
 30
0.0
 10
437.1198705851984
 20
215.8969585726669
 30
0.0
 10
437.0079076734086
 20
215.7315293938346
 30
0.0
 10
436.8959447616189
 20
215.5661002150023
 30
0.0
 10
436.7722954399877
 20
215.4285924584855
 30
0.0
 10
436.6246300347512
 20
215.3821267331282
 30
0.0
 10
436.04290413022
 20
215.199041439934
 30
0.0
 10
435.4502077497529
 20
215.0516075020504
 30
0.0
 10
434.8555694658542
 20
214.9098431685728
 30
0.0
 10
434.2609311819554
 20
214.7680788350952
 30
0.0
 10
433.6643509946248
 20
214.6319841060235
 30
0.0
 10
433.0748574763667
 20
214.4715772304533
 30
0.0
 10
432.3595318455099
 20
214.2769347184984
 30
0.0
 10
431.6485825625116
 20
214.066202534035
 30
0.0
 10
430.9376198221091
 20
213.8555282164099
 30
0.0
 10
430.2266570817066
 20
213.6448538987847
 30
0.0
 10
429.5156808838998
 20
213.4342374479978
 30
0.0
 10
428.800301423426
 20
213.2398264033958
 30
0.0
 10
428.2459640280026
 20
213.0891734544182
 30
0.0
 10
427.6890185876375
 20
212.9015261011868
 30
0.0
 10
427.1302597620512
 20
212.7480995811954
 30
0.0
 10
426.5715009364649
 20
212.5946730612041
 30
0.0
 10
426.0109287256574
 20
212.4754673744528
 30
0.0
 10
425.4493377893489
 20
212.4616977584352
 30
0.0
 10
423.5692038430823
 20
212.4156142233582
 30
0.0
 10
421.6877739487875
 20
212.3955707654843
 30
0.0
 10
419.8062693658991
 20
212.3978060403284
 30
0.0
 10
417.9247647830107
 20
212.4000413151726
 30
0.0
 10
416.0431855115287
 20
212.4245553227348
 30
0.0
 10
414.162752810888
 20
212.4675867185302
 30
0.0
 10
413.2588404999839
 20
212.4882788232885
 30
0.0
 10
412.3555781817046
 20
212.5663371508379
 30
0.0
 10
411.4534086046494
 20
212.6673928364918
 30
0.0
 10
410.5512390275943
 20
212.7684485221456
 30
0.0
 10
409.6501621917633
 20
212.892501565904
 30
0.0
 10
408.7506208457561
 20
213.0051831030801
 30
0.0
 10
408.5316473469367
 20
213.0326092929197
 30
0.0
 10
408.2628464631809
 20
213.0892864966138
 30
0.0
 10
408.0293934702702
 20
213.1781242049588
 30
0.0
 10
407.7959404773595
 20
213.2669619133038
 30
0.0
 10
407.5978353752938
 20
213.3879601262998
 30
0.0
 10
407.5202534398545
 20
213.5440283347433
 30
0.0
 10
407.1611372247681
 20
214.2664594750385
 30
0.0
 10
406.5104475064725
 20
214.6680849386358
 30
0.0
 10
405.8697337619393
 20
215.0957249103679
 30
0.0
 10
405.2290200174061
 20
215.5233648821001
 30
0.0
 10
404.5982822466356
 20
215.9770193619671
 30
0.0
 10
404.2790699265995
 20
216.8035085348019
 30
0.0
 10
404.0925126231115
 20
217.2865378366425
 30
0.0
 10
403.7273944057346
 20
217.753132956426
 30
0.0
 10
403.2268119386746
 20
218.0295009385855
 30
0.0
 10
402.7262294716146
 20
218.305868920745
 30
0.0
 10
402.0901827548716
 20
218.3920097652805
 30
0.0
 10
401.3617684526516
 20
218.1141305166249
 30
0.0
 10
401.2066126562156
 20
218.0549394698189
 30
0.0
 10
401.0144543810832
 20
218.0927440098079
 30
0.0
 10
400.8104704119756
 20
218.1571349976119
 30
0.0
 10
400.606486442868
 20
218.2215259854159
 30
0.0
 10
400.3906767797852
 20
218.312503421035
 30
0.0
 10
400.1882182074481
 20
218.3596581654893
 30
0.0
 10
400.552736224596
 20
219.220539080598
 30
0.0
 10
400.5821581474843
 20
219.9511603971132
 30
0.0
 10
400.3190907908046
 20
220.5337031660817
 30
0.0
 10
400.056023434125
 20
221.1162459350503
 30
0.0
 10
399.5004667978774
 20
221.5507101564721
 30
0.0
 10
398.6950276967537
 20
221.8192768813942
 30
0.0
 10
398.3838682874144
 20
222.9055531686253
 30
0.0
 10
398.1596167946523
 20
223.9990587734138
 30
0.0
 10
397.8928607634707
 20
225.0512770619962
 30
0.0
 10
397.626104732289
 20
226.1034953505786
 30
0.0
 10
397.316844162688
 20
227.114426322955
 30
0.0
 10
396.8356665996708
 20
228.035553345362
 30
0.0
 10
395.9959245751411
 20
229.6430941113582
 30
0.0
 10
395.4846858625343
 20
231.2823028410103
 30
0.0
 10
395.1826075095757
 20
232.9577550517595
 30
0.0
 10
394.8805291566171
 20
234.6332072625087
 30
0.0
 10
394.7876111633067
 20
236.3449029543551
 30
0.0
 10
394.78451057737
 20
238.09741764474
 30
0.0
 10
394.783767728656
 20
238.5175308902811
 30
0.0
 10
394.638976824965
 20
238.9345516243281
 30
0.0
 10
394.4657295671398
 20
239.3535331021727
 30
0.0
 10
394.2924823093147
 20
239.7725145800173
 30
0.0
 10
394.0907786973554
 20
240.1934568016596
 30
0.0
 10
393.9762104321049
 20
240.6214130223913
 30
0.0
 10
393.9174419477921
 20
240.8409409662655
 30
0.0
 10
393.8527548970948
 20
241.1199721687239
 30
0.0
 10
393.8308220196657
 20
241.3750680320024
 30
0.0
 10
393.8088891422365
 20
241.630163895281
 30
0.0
 10
393.8297104380755
 20
241.8613244193795
 30
0.0
 10
393.9419586468352
 20
241.9851110065339
 30
0.0
 10
394.8300208270263
 20
242.9643901641396
 30
0.0
 10
395.1626071153953
 20
244.100192390452
 30
0.0
 10
395.1727627455044
 20
245.2010874559083
 30
0.0
 10
395.1829183756136
 20
246.3019825213645
 30
0.0
 10
394.8706433474629
 20
247.3679704259646
 30
0.0
 10
394.4689828946147
 20
248.2076209401454
 30
0.0
 10
394.0771705701887
 20
249.0266708599167
 30
0.0
 10
393.9393532933744
 20
249.768294950138
 30
0.0
 10
393.9419566282245
 20
250.4612018912727
 30
0.0
 10
393.9445599630746
 20
251.1541088324073
 30
0.0
 10
394.087583909589
 20
251.7982986244555
 30
0.0
 10
394.2574540318203
 20
252.4224799478807
 30
0.0
 10
394.5989598877191
 20
253.6773075317277
 30
0.0
 10
394.781802947637
 20
254.8787980396128
 30
0.0
 10
394.682502107496
 20
256.0591348537743
 30
0.0
 10
394.5832012673549
 20
257.2394716679357
 30
0.0
 10
394.2017565271549
 20
258.3986547883734
 30
0.0
 10
393.4146867828177
 20
259.5688675973257
 30
0.0
 10
394.3522991254177
 20
259.7806925230133
 30
0.0
 10
394.9445446828428
 20
260.2103040044665
 30
0.0
 10
395.3290159932562
 20
260.7734681113305
 30
0.0
 10
395.7134873036697
 20
261.3366322181945
 30
0.0
 10
395.8901843670716
 20
262.0333489504693
 30
0.0
 10
395.9966997216253
 20
262.7793843778002
 30
0.0
 10
396.1398730453267
 20
263.7821332483991
 30
0.0
 10
396.2803468137378
 20
264.7852858411252
 30
0.0
 10
396.4229704024761
 20
265.7881100731879
 30
0.0
 10
396.5655939912144
 20
266.7909343052505
 30
0.0
 10
396.7103674002799
 20
267.7934301766497
 30
0.0
 10
396.8621400052903
 20
268.7948656045949
 30
0.0
 10
396.8821942290876
 20
268.9271788030753
 30
0.0
 10
396.9257962188228
 20
269.100862753668
 30
0.0
 10
396.9848977738905
 20
269.246247128886
 30
0.0
 10
397.0439993289583
 20
269.3916315041039
 30
0.0
 10
397.1186004493586
 20
269.5087163039472
 30
0.0
 10
397.2006529344862
 20
269.5278312009286
 30
0.0
 10
398.002501600159
 20
269.7146199717695
 30
0.0
 10
398.4415453762434
 20
270.1103484008291
 30
0.0
 10
398.7350553999229
 20
270.6290775046355
 30
0.0
 10
399.0285654236024
 20
271.1478066084419
 30
0.0
 10
399.1765416948768
 20
271.7895363869951
 30
0.0
 10
399.3962553509295
 20
272.4683278568232
 30
0.0
 10
399.7428373397073
 20
273.5390742995623
 30
0.0
 10
400.2282580222811
 20
274.5659092322686
 30
0.0
 10
400.7601955683484
 20
275.5766518009857
 30
0.0
 10
401.2921331144156
 20
276.5873943697027
 30
0.0
 10
401.8705875239763
 20
277.5820445744305
 30
0.0
 10
402.4032369667278
 20
278.5884215612123
 30
0.0
 10
402.4894612471695
 20
278.7513368969327
 30
0.0
 10
402.6550721009591
 20
278.9432125665761
 30
0.0
 10
402.8314979976656
 20
279.0881326613478
 30
0.0
 10
403.007923894372
 20
279.2330527561195
 30
0.0
 10
403.1951648339954
 20
279.3310172760196
 30
0.0
 10
403.3246492861046
 20
279.3061103122536
 30
0.0
 10
404.1892444447834
 20
279.1398090936265
 30
0.0
 10
404.6084412410958
 20
279.4334631115314
 30
0.0
 10
404.8773915020386
 20
279.8844530253591
 30
0.0
 10
405.1463417629814
 20
280.3354429391867
 30
0.0
 10
405.2650454885546
 20
280.9437687489373
 30
0.0
 10
405.5286545057549
 20
281.4068111140016
 30
0.0
 10
404.090399810646
 20
281.0896039471972
 30
0.0
 10
402.7239215267876
 20
280.6793899682145
 30
0.0
 10
401.6251285078735
 20
279.9142194577959
 30
0.0
 10
400.5263354889594
 20
279.1490489473772
 30
0.0
 10
399.6952277349897
 20
278.0289219055226
 30
0.0
 10
399.3277140996581
 20
276.2918886129746
 30
0.0
 10
399.2220277212055
 20
276.3598000577276
 30
0.0
 10
399.1163413427529
 20
276.4277141939614
 30
0.0
 10
399.0106542914302
 20
276.4956296759357
 30
0.0
 10
398.9049672401073
 20
276.5635451579099
 30
0.0
 10
398.7992795159143
 20
276.6314619856246
 30
0.0
 10
398.6935904459809
 20
276.6993788133393
 30
0.0
 10
398.8796659743971
 20
277.1998704429207
 30
0.0
 10
399.0657401570729
 20
277.700362072502
 30
0.0
 10
399.273350896623
 20
278.2587837901121
 30
0.0
 10
399.480961636173
 20
278.8172055077222
 30
0.0
 10
399.7101089325974
 20
279.433557313361
 30
0.0
 10
399.9823306885108
 20
280.1657692950573
 30
0.0
 10
399.0159410326855
 20
279.9705938698945
 30
0.0
 10
398.0785978381703
 20
279.78128587298
 30
0.0
 10
397.1131105012992
 20
279.5862934685149
 30
0.0
 10
396.1476231644281
 20
279.3913010640497
 30
0.0
 10
395.1539916852013
 20
279.190624252034
 30
0.0
 10
394.0750254599529
 20
278.9727111966685
 30
0.0
 10
395.220581612858
 20
280.3994005985742
 30
0.0
 10
396.8908729090815
 20
280.9492351465393
 30
0.0
 10
398.5089595699098
 20
281.6094042603811
 30
0.0
 10
400.1270462307381
 20
282.2695733742229
 30
0.0
 10
401.6929282561713
 20
283.0400770539416
 30
0.0
 10
402.6296658674958
 20
284.9081047193546
 30
0.0
 10
400.7310226074385
 20
285.3834633007787
 30
0.0
 10
398.8759113586144
 20
285.8479213847691
 30
0.0
 10
397.0242869232286
 20
286.3115060832242
 30
0.0
 10
395.1726624878428
 20
286.7750907816795
 30
0.0
 10
393.3245248658955
 20
287.2378020945995
 30
0.0
 10
391.4398288595918
 20
287.7096671338832
 30
0.0
 10
392.0922465085918
 20
288.3974696815899
 30
0.0
 10
392.8896703797507
 20
288.6558760663112
 30
0.0
 10
393.7360482503107
 20
288.781796997778
 30
0.0
 10
394.5824261208708
 20
288.9077179292447
 30
0.0
 10
395.4777579908319
 20
288.9011534074568
 30
0.0
 10
396.3259916374365
 20
289.059014142145
 30
0.0
 10
395.6880945276106
 20
289.8017498139563
 30
0.0
 10
394.1934869522498
 20
290.4090690098698
 30
0.0
 10
392.3149174292261
 20
290.7912391041584
 30
0.0
 10
390.4363479062022
 20
291.1734091984469
 30
0.0
 10
388.1738164355154
 20
291.3304301911106
 30
0.0
 10
386.0000715350375
 20
291.1725694564224
 30
0.0
 10
386.169478722563
 20
291.9786249066603
 30
0.0
 10
386.5667372584846
 20
292.3978082455685
 30
0.0
 10
387.0726064668
 20
292.6227918211213
 30
0.0
 10
387.5784756751153
 20
292.847775396674
 30
0.0
 10
388.1929555558245
 20
292.8785592088713
 30
0.0
 10
388.7968054329251
 20
292.9078156056875
 30
0.0
 10
390.5922627002374
 20
292.9948069581708
 30
0.0
 10
392.3737202299197
 20
292.9717423130452
 30
0.0
 10
394.1305870448356
 20
292.7612819681474
 30
0.0
 10
395.8874538597514
 20
292.5508216232497
 30
0.0
 10
397.6197299599009
 20
292.1529655785799
 30
0.0
 10
399.3168243681477
 20
291.490374131975
 30
0.0
 10
399.4579898471367
 20
291.4352606786535
 30
0.0
 10
399.614848005209
 20
291.4203350716118
 30
0.0
 10
399.7759068920146
 20
291.416167986389
 30
0.0
 10
399.9369657788203
 20
291.4120009011664
 30
0.0
 10
400.1022253943592
 20
291.4185923377628
 30
0.0
 10
400.2601937882813
 20
291.4065129717176
 30
0.0
 10
400.3050930717852
 20
291.5027145716624
 30
0.0
 10
400.349992355289
 20
291.5989161716071
 30
0.0
 10
400.3948916387929
 20
291.6951184444221
 30
0.0
 10
400.4397909222968
 20
291.7913207172371
 30
0.0
 10
400.4846902058006
 20
291.8875236629222
 30
0.0
 10
400.5295894893044
 20
291.9837279543478
 30
0.0
 10
398.2011167378453
 20
293.2825720159806
 30
0.0
 10
395.8726426406457
 20
294.5814174233537
 30
0.0
 10
393.5522907597747
 20
295.8757323955898
 30
0.0
 10
391.2319388789037
 20
297.1700473678258
 30
0.0
 10
388.9197092143613
 20
298.4598319049247
 30
0.0
 10
386.6237253282166
 20
299.7405542260089
 30
0.0
 10
387.1455092627853
 20
300.146268049014
 30
0.0
 10
387.8307602866483
 20
300.3330272135656
 30
0.0
 10
389.2230465074865
 20
300.2850905939249
 30
0.0
 10
390.6153327283248
 20
300.2371539742842
 30
0.0
 10
392.7146541461383
 20
299.9545215704514
 30
0.0
 10
396.0645788686081
 20
299.4214522566876
 30
0.0
 10
394.7263584421713
 20
300.3234078610154
 30
0.0
 10
393.3607791129161
 20
301.1661697270563
 30
0.0
 10
391.9021229929804
 20
301.8647469454672
 30
0.0
 10
390.4434668730448
 20
302.5633241638781
 30
0.0
 10
388.8917339624288
 20
303.1177167346589
 30
0.0
 10
387.1812063732704
 20
303.4429337484665
 30
0.0
 10
387.1954981365724
 20
303.6876674104808
 30
0.0
 10
387.2121745519057
 20
303.9732025764081
 30
0.0
 10
387.2315471581784
 20
304.304893274525
 30
0.0
 10
387.250919764451
 20
304.6365839726419
 30
0.0
 10
387.2729885616629
 20
305.0144302029483
 30
0.0
 10
387.2980650887224
 20
305.443785993721
 30
0.0
 10
389.5440735584842
 20
305.5593420324427
 30
0.0
 10
391.6148074124723
 20
305.0565895589491
 30
0.0
 10
393.62541560293
 20
304.349767661831
 30
0.0
 10
395.6360237933877
 20
303.6429457647129
 30
0.0
 10
397.586506320315
 20
302.7320544439703
 30
0.0
 10
399.5920121359554
 20
302.0313327881939
 30
0.0
 10
399.6595198585812
 20
302.0877354608415
 30
0.0
 10
399.727027581207
 20
302.144138133489
 30
0.0
 10
399.7945353038328
 20
302.2005408061366
 30
0.0
 10
399.8620430264587
 20
302.2569434787842
 30
0.0
 10
399.9295507490845
 20
302.3133461514317
 30
0.0
 10
399.9970584717103
 20
302.3697488240794
 30
0.0
 10
398.8683779037212
 20
303.6975639855584
 30
0.0
 10
397.7396973357322
 20
305.0253791470374
 30
0.0
 10
396.5892938258202
 20
306.3787499191668
 30
0.0
 10
395.4388903159081
 20
307.7321206912961
 30
0.0
 10
394.266763864073
 20
309.1110470740759
 30
0.0
 10
393.0511915283919
 20
310.5410846781563
 30
0.0
 10
392.9401114223203
 20
310.2681739031459
 30
0.0
 10
392.8685678241631
 20
310.0979175534129
 30
0.0
 10
392.8191105178434
 20
309.9782415303834
 30
0.0
 10
392.7696532115237
 20
309.8585655073539
 30
0.0
 10
392.7422821970415
 20
309.7894698110279
 30
0.0
 10
392.7195472583197
 20
309.7188803428313
 30
0.0
 10
392.7031722888414
 20
309.6680221207303
 30
0.0
 10
392.692971576428
 20
309.6151735485423
 30
0.0
 10
392.6844180502935
 20
309.5614240031405
 30
0.0
 10
392.6758645241591
 20
309.5076744577386
 30
0.0
 10
392.6689581843035
 20
309.4530239391231
 30
0.0
 10
392.6591719599407
 20
309.3985618241667
 30
0.0
 10
392.6131395629999
 20
309.4211056677483
 30
0.0
 10
392.5526660255699
 20
309.4394158119563
 30
0.0
 10
392.5021422199643
 20
309.4593152756049
 30
0.0
 10
392.4516184143586
 20
309.4792147392535
 30
0.0
 10
392.4110443405773
 20
309.5007035223427
 30
0.0
 10
392.4048108709337
 20
309.5296046436869
 30
0.0
 10
392.0633265468816
 20
311.1119612233898
 30
0.0
 10
391.1093271231395
 20
312.1175482605428
 30
0.0
 10
390.0049499543363
 20
312.9811300766823
 30
0.0
 10
388.9005727855331
 20
313.8447118928218
 30
0.0
 10
387.645817871669
 20
314.5662884879478
 30
0.0
 10
386.7028225673732
 20
315.5806241835967
 30
0.0
 10
386.5364944339377
 20
315.7595376814768
 30
0.0
 10
386.3460479406246
 20
315.9160311438943
 30
0.0
 10
386.1051153224377
 20
316.1019041383767
 30
0.0
 10
385.8641827042508
 20
316.2877771328591
 30
0.0
 10
385.5727639611901
 20
316.5030296594064
 30
0.0
 10
385.2044913282595
 20
316.7994612855462
 30
0.0
 10
386.715989291681
 20
316.803374698699
 30
0.0
 10
387.9259404696113
 20
316.4287205646781
 30
0.0
 10
388.9839757211761
 20
315.8739632982424
 30
0.0
 10
390.042010972741
 20
315.3192060318066
 30
0.0
 10
390.9481302979403
 20
314.5843456329561
 30
0.0
 10
391.8519645558999
 20
313.8678465164495
 30
0.0
 10
393.6512706408247
 20
312.4414800922456
 30
0.0
 10
395.4369645613614
 20
310.9979393287514
 30
0.0
 10
397.2569667882658
 20
309.5729448869097
 30
0.0
 10
399.0769690151702
 20
308.1479504450679
 30
0.0
 10
400.931279548442
 20
306.7415023248785
 30
0.0
 10
402.8678188588371
 20
305.3893211872839
 30
0.0
 10
402.6349088721875
 20
305.7419724653736
 30
0.0
 10
402.4183173339183
 20
306.108552156851
 30
0.0
 10
402.191871611395
 20
306.4667189520682
 30
0.0
 10
401.9654258888716
 20
306.8248857472854
 30
0.0
 10
401.729125982094
 20
307.1746396462424
 30
0.0
 10
401.4567992584276
 20
307.4936393392914
 30
0.0
 10
400.887249613252
 20
308.1607955374143
 30
0.0
 10
400.2924982871577
 20
308.8063122295204
 30
0.0
 10
399.6957996746698
 20
309.4502402750562
 30
0.0
 10
399.0991010621821
 20
310.0941683205918
 30
0.0
 10
398.5004551633008
 20
310.7365077195571
 30
0.0
 10
397.9231163725516
 20
311.3973093313982
 30
0.0
 10
395.6660566824285
 20
313.9806545532255
 30
0.0
 10
393.4130570911643
 20
316.5675484925507
 30
0.0
 10
391.162006132034
 20
319.1561427749015
 30
0.0
 10
388.9109551729037
 20
321.7447370572523
 30
0.0
 10
386.6618528459073
 20
324.3350316826288
 30
0.0
 10
384.4125876843195
 20
326.9251782765587
 30
0.0
 10
384.3441702411671
 20
327.003963303937
 30
0.0
 10
384.2906299584012
 20
327.0956687851254
 30
0.0
 10
384.2147981583832
 20
327.2371007207183
 30
0.0
 10
384.1389663583652
 20
327.3785326563112
 30
0.0
 10
384.0408430410951
 20
327.5696910463085
 30
0.0
 10
383.8832595289343
 20
327.8473818913048
 30
0.0
 10
385.8048611206237
 20
327.5451689643038
 30
0.0
 10
387.4487880162021
 20
326.8776521077473
 30
0.0
 10
388.9357215067954
 20
326.0271226279795
 30
0.0
 10
390.4226549973888
 20
325.1765931482116
 30
0.0
 10
391.7525950829972
 20
324.1430510452324
 30
0.0
 10
393.0462230547468
 20
323.108787625386
 30
0.0
 10
394.2995272604339
 20
322.1067627631352
 30
0.0
 10
395.6948272669516
 20
321.2718573296891
 30
0.0
 10
396.9667403712207
 20
320.2868870358307
 30
0.0
 10
398.2386534754899
 20
319.3019167419722
 30
0.0
 10
399.3871796775105
 20
318.1668815877014
 30
0.0
 10
400.1469362742037
 20
316.564597283801
 30
0.0
 10
400.2638111385409
 20
316.6886126468275
 30
0.0
 10
400.3806873486184
 20
316.8126280098539
 30
0.0
 10
400.4975635586959
 20
316.9366433728804
 30
0.0
 10
400.6144397687734
 20
317.0606587359068
 30
0.0
 10
400.7313159788509
 20
317.1846740989333
 30
0.0
 10
400.848190843188
 20
317.3086894619597
 30
0.0
 10
400.2253579516676
 20
317.9260532643974
 30
0.0
 10
399.5901267536215
 20
318.5321787885547
 30
0.0
 10
398.9635742355693
 20
319.1461708383603
 30
0.0
 10
398.3370217175171
 20
319.7601628881657
 30
0.0
 10
397.7191478794588
 20
320.3820214636193
 30
0.0
 10
397.131029707914
 20
321.0308513686491
 30
0.0
 10
396.8124202795879
 20
321.3823533844168
 30
0.0
 10
396.5308254416219
 20
321.7723610709343
 30
0.0
 10
396.2715907536696
 20
322.1795881790461
 30
0.0
 10
396.0123560657173
 20
322.5868152871579
 30
0.0
 10
395.7754815277787
 20
323.0112618168641
 30
0.0
 10
395.5463126995076
 20
323.4316415190092
 30
0.0
 10
395.1881708004882
 20
324.0886185365655
 30
0.0
 10
394.8558482772423
 20
324.7595589567604
 30
0.0
 10
394.5262414581719
 20
325.4320489970535
 30
0.0
 10
394.1966346391014
 20
326.1045390373466
 30
0.0
 10
393.8697435242065
 20
326.7785786977379
 30
0.0
 10
393.522464441889
 20
327.4417541956868
 30
0.0
 10
393.1557609422927
 20
328.1420290656425
 30
0.0
 10
392.7819600077005
 20
328.8387686755045
 30
0.0
 10
392.4020036564094
 20
329.5321439343067
 30
0.0
 10
392.0220473051181
 20
330.2255191931089
 30
0.0
 10
391.6359355371279
 20
330.9155301008513
 30
0.0
 10
391.2446103707354
 20
331.6023475665677
 30
0.0
 10
391.102728957841
 20
331.8513660660918
 30
0.0
 10
390.9610817037802
 20
332.1240171132004
 30
0.0
 10
390.7986319942464
 20
332.3709941245014
 30
0.0
 10
390.6361822847127
 20
332.6179711358023
 30
0.0
 10
390.4529301197059
 20
332.8392741112957
 30
0.0
 10
390.2278388849192
 20
332.9855964675891
 30
0.0
 10
389.3400000976384
 20
333.5627360887556
 30
0.0
 10
389.1374688553184
 20
334.3108076213479
 30
0.0
 10
389.102278416103
 20
335.1080249213517
 30
0.0
 10
389.0670879768876
 20
335.9052422213555
 30
0.0
 10
389.1992383407767
 20
336.7516052887708
 30
0.0
 10
388.980762765914
 20
337.5253279795836
 30
0.0
 10
389.2818129731887
 20
336.2294364724409
 30
0.0
 10
389.6329543305228
 20
334.9931841436653
 30
0.0
 10
390.3055500114392
 20
333.9796336875538
 30
0.0
 10
390.9781456923556
 20
332.9660832314422
 30
0.0
 10
391.9721956968543
 20
332.1752346479946
 30
0.0
 10
393.5590631984581
 20
331.7701506315079
 30
0.0
 10
393.1341429681227
 20
333.1996472479379
 30
0.0
 10
392.7258547436866
 20
334.5795721701122
 30
0.0
 10
392.3222012492706
 20
335.9335838511184
 30
0.0
 10
391.9185477548544
 20
337.2875955321247
 30
0.0
 10
391.5195289904584
 20
338.615693971963
 30
0.0
 10
391.113147680203
 20
339.9415376237209
 30
0.0
 10
391.0858533729249
 20
340.0305798846104
 30
0.0
 10
391.0045545024347
 20
340.1048640831409
 30
0.0
 10
390.9074021368804
 20
340.1732462006072
 30
0.0
 10
390.8102497713262
 20
340.2416283180734
 30
0.0
 10
390.6972439107079
 20
340.3041083544754
 30
0.0
 10
390.6065356231736
 20
340.369542291108
 30
0.0
 10
390.0426138644509
 20
340.7763219405289
 30
0.0
 10
389.5371968249179
 20
341.1945807557658
 30
0.0
 10
389.3473929226573
 20
341.667142888589
 30
0.0
 10
389.1575890203966
 20
342.1397050214122
 30
0.0
 10
389.2833982554081
 20
342.6665704718217
 30
0.0
 10
389.9819290457744
 20
343.2905633915876
 30
0.0
 10
389.4364546967829
 20
344.2761231197517
 30
0.0
 10
388.9018081752423
 20
345.2421178007626
 30
0.0
 10
388.3725755674271
 20
346.1983299581968
 30
0.0
 10
387.843342959612
 20
347.1545421156311
 30
0.0
 10
387.3195242655223
 20
348.1009717494887
 30
0.0
 10
386.7957055714326
 20
349.0474013833464
 30
0.0
 10
386.866405390344
 20
349.0963621114496
 30
0.0
 10
386.9371052092553
 20
349.1453221666827
 30
0.0
 10
387.0078050281667
 20
349.1942822219157
 30
0.0
 10
387.078504847078
 20
349.2432422771488
 30
0.0
 10
387.1492046659894
 20
349.2922023323818
 30
0.0
 10
387.2199044849008
 20
349.3411630604851
 30
0.0
 10
387.8504403946078
 20
348.5941344767214
 30
0.0
 10
388.4653239974441
 20
347.8323895485518
 30
0.0
 10
389.0897495727563
 20
347.0796166717886
 30
0.0
 10
389.7141751480684
 20
346.3268437950254
 30
0.0
 10
390.3481426958564
 20
345.5830429696684
 30
0.0
 10
391.0168464954668
 20
344.87190259153
 30
0.0
 10
392.2122165759039
 20
343.6006650489537
 30
0.0
 10
393.4496222042228
 20
342.3681464769843
 30
0.0
 10
394.6801921440583
 20
341.1296958812263
 30
0.0
 10
395.9107620838938
 20
339.8912452854682
 30
0.0
 10
397.134496335246
 20
338.6468626659215
 30
0.0
 10
398.3025236617498
 20
337.3518970281905
 30
0.0
 10
400.2249246232511
 20
335.2205685201343
 30
0.0
 10
402.1035015478472
 20
333.0519084998483
 30
0.0
 10
403.8455255187574
 20
330.7802323865458
 30
0.0
 10
405.5875494896676
 20
328.5085562732433
 30
0.0
 10
407.1930205068918
 20
326.1338640669244
 30
0.0
 10
408.5692096536493
 20
323.5904711868026
 30
0.0
 10
408.6884691700176
 20
323.3700577457295
 30
0.0
 10
408.8163562282436
 20
323.154312678187
 30
0.0
 10
408.9890490410141
 20
322.9535753078521
 30
0.0
 10
409.1617418537846
 20
322.7528379375173
 30
0.0
 10
409.3792404210995
 20
322.56710826439
 30
0.0
 10
409.6777229556454
 20
322.4067256121473
 30
0.0
 10
409.3520160923235
 20
324.6530893573811
 30
0.0
 10
409.0766560697415
 20
326.9099270003343
 30
0.0
 10
408.7673544550574
 20
329.1597035432831
 30
0.0
 10
408.4580528403735
 20
331.409480086232
 30
0.0
 10
408.1148096335874
 20
333.6521955291765
 30
0.0
 10
407.6533364018573
 20
335.8703148743929
 30
0.0
 10
407.3408608583835
 20
337.3722675009875
 30
0.0
 10
406.8455139944427
 20
338.83459614654
 30
0.0
 10
406.3163251231914
 20
340.2910324676463
 30
0.0
 10
405.78713625194
 20
341.7474687887527
 30
0.0
 10
405.2241053733779
 20
343.1980127854129
 30
0.0
 10
404.7762618006614
 20
344.6763961142229
 30
0.0
 10
404.5762820821852
 20
345.3365584993626
 30
0.0
 10
404.4838660500529
 20
346.0282448539328
 30
0.0
 10
404.3976525355346
 20
346.7224847509574
 30
0.0
 10
404.3114390210162
 20
347.416724647982
 30
0.0
 10
404.2314280241117
 20
348.113518087461
 30
0.0
 10
404.056258376091
 20
348.7838946424183
 30
0.0
 10
403.8672491335506
 20
349.5072301202784
 30
0.0
 10
403.632294967197
 20
350.2195789733175
 30
0.0
 10
403.3771991039185
 20
350.9260614074137
 30
0.0
 10
403.12210324064
 20
351.6325438415098
 30
0.0
 10
402.8468656804366
 20
352.333159856663
 30
0.0
 10
402.5772896501966
 20
353.033029658751
 30
0.0
 10
401.6859896185455
 20
355.3470303176913
 30
0.0
 10
400.7722951204999
 20
357.6527617381616
 30
0.0
 10
399.8700488362406
 20
359.9626018723638
 30
0.0
 10
398.9678025519813
 20
362.2724420065659
 30
0.0
 10
398.0770044815083
 20
364.5863908544999
 30
0.0
 10
397.2314973050026
 20
366.9168263683674
 30
0.0
 10
397.015355244035
 20
367.5125621035819
 30
0.0
 10
396.9346404248888
 20
368.1574325038494
 30
0.0
 10
396.8905304181436
 20
368.8155833434905
 30
0.0
 10
396.8464204113984
 20
369.4737341831316
 30
0.0
 10
396.8389152170541
 20
370.1451654621462
 30
0.0
 10
396.7691924056905
 20
370.7940229548547
 30
0.0
 10
396.9134503961737
 20
370.8587826755348
 30
0.0
 10
397.0577083866568
 20
370.923542396215
 30
0.0
 10
397.20196637714
 20
370.9883021168951
 30
0.0
 10
397.3462243676231
 20
371.0530618375753
 30
0.0
 10
397.4904823581062
 20
371.1178215582555
 30
0.0
 10
397.6347403485894
 20
371.1825812789356
 30
0.0
  0
SPLINE
  5
46
330
41
100
AcDbEntity
  8
LAYER_1
 62
     7
100
AcDbSpline
210
0.0
220
0.0
230
1.0
 70
    11
 71
     3
 72
    23
 73
    19
 74
     0
 42
0.0000000001
 43
0.0000000001
 12
1.0
 22
0.0
 32
0.0
 13
1.0
 23
0.0
 33
0.0
 40
0.0
 40
0.0
 40
0.0
 40
0.0
 40
1.0
 40
1.0
 40
1.0
 40
2.0
 40
2.0
 40
2.0
 40
3.0
 40
3.0
 40
3.0
 40
4.0
 40
4.0
 40
4.0
 40
5.0
 40
5.0
 40
5.0
 40
6.0
 40
6.0
 40
6.0
 40
6.0
 10
439.5131272806653
 20
273.2748677736138
 30
0.0
 10
439.4152704199992
 20
274.4929351120409
 30
0.0
 10
439.1381286370959
 20
275.5183166450893
 30
0.0
 10
438.5603511349685
 20
276.2953431286428
 30
0.0
 10
437.9825736328411
 20
277.0723696121962
 30
0.0
 10
437.1041604114895
 20
277.6010410462546
 30
0.0
 10
435.8037606739267
 20
277.8256881867014
 30
0.0
 10
436.0125388432945
 20
276.8769627196805
 30
0.0
 10
436.1169279279785
 20
276.4025999861701
 30
0.0
 10
436.408482590822
 20
276.0876617377205
 30
0.0
 10
436.7000372536655
 20
275.7727234892708
 30
0.0
 10
437.1787574946686
 20
275.6172097258819
 30
0.0
 10
438.1361979766747
 20
275.3061821991042
 30
0.0
 10
437.8201912103285
 20
274.5781689275306
 30
0.0
 10
437.9395018648329
 20
274.1782633201951
 30
0.0
 10
438.2502750466705
 20
273.9063995312345
 30
0.0
 10
438.5610482285081
 20
273.6345357422739
 30
0.0
 10
439.0632839376789
 20
273.4907137716881
 30
0.0
 10
439.5131272806653
 20
273.2748677736138
 30
0.0
  0
SPLINE
  5
47
330
41
100
AcDbEntity
  8
LAYER_1
 62
     7
100
AcDbSpline
210
0.0
220
0.0
230
1.0
 70
    11
 71
     3
 72
    23
 73
    19
 74
     0
 42
0.0000000001
 43
0.0000000001
 12
1.0
 22
0.0
 32
0.0
 13
1.0
 23
0.0
 33
0.0
 40
0.0
 40
0.0
 40
0.0
 40
0.0
 40
1.0
 40
1.0
 40
1.0
 40
2.0
 40
2.0
 40
2.0
 40
3.0
 40
3.0
 40
3.0
 40
4.0
 40
4.0
 40
4.0
 40
5.0
 40
5.0
 40
5.0
 40
6.0
 40
6.0
 40
6.0
 40
6.0
 10
439.5131272806653
 20
273.2748677736138
 30
0.0
 10
439.0632839376789
 20
273.4907137716881
 30
0.0
 10
438.5610482285081
 20
273.6345357422739
 30
0.0
 10
438.2502750466705
 20
273.9063995312345
 30
0.0
 10
437.9395018648329
 20
274.1782633201951
 30
0.0
 10
437.8201912103285
 20
274.5781689275306
 30
0.0
 10
438.1361979766747
 20
275.3061821991042
 30
0.0
 10
437.1787574946686
 20
275.6172097258819
 30
0.0
 10
436.7000372536655
 20
275.7727234892708
 30
0.0
 10
436.408482590822
 20
276.0876617377205
 30
0.0
 10
436.1169279279785
 20
276.4025999861701
 30
0.0
 10
436.0125388432945
 20
276.8769627196805
 30
0.0
 10
435.8037606739267
 20
277.8256881867014
 30
0.0
 10
437.1041604114895
 20
277.6010410462546
 30
0.0
 10
437.9825736328411
 20
277.0723696121962
 30
0.0
 10
438.5603511349685
 20
276.2953431286428
 30
0.0
 10
439.1381286370959
 20
275.5183166450893
 30
0.0
 10
439.4152704199992
 20
274.4929351120409
 30
0.0
 10
439.5131272806653
 20
273.2748677736138
 30
0.0
  0
ENDBLK
  5
44
330
41
100
AcDbEntity
  8
0
100
AcDbBlockEnd
  0
ENDSEC
  0
SECTION
  2
ENTITIES
  0
INSERT
  5
42
330
1F
100
AcDbEntity
  8
LAYER_1
100
AcDbBlockReference
  2
BLOCK_2
 10
0.0
 20
0.0
 30
0.0
  0
ENDSEC
  0
SECTION
  2
OBJECTS
  0
DICTIONARY
  5
C
330
0
100
AcDbDictionary
  3
ACAD_GROUP
350
D
  3
ACAD_LAYOUT
350
1A
  3
ACAD_MATERIAL
350
3B
  3
ACAD_MLEADERSTYLE
350
4A
  3
ACAD_MLINESTYLE
350
17
  3
ACAD_PLOTSETTINGS
350
19
  3
ACAD_VISUALSTYLE
350
2A
  3
ACDBVARIABLEDICTIONARY
350
48
1001
ACAD
1000
TREAT_AS_HARD
1070
     0
  0
DICTIONARY
  5
D
102
{ACAD_REACTORS
330
C
102
}
330
C
100
AcDbDictionary
1001
ACAD
1000
TREAT_AS_HARD
1070
     0
  0
DICTIONARY
  5
1A
102
{ACAD_REACTORS
330
C
102
}
330
C
100
AcDbDictionary
1001
ACAD
1000
TREAT_AS_HARD
1070
     0
  0
DICTIONARY
  5
3B
102
{ACAD_REACTORS
330
C
102
}
330
C
100
AcDbDictionary
  3
BYBLOCK
350
3D
  3
BYLAYER
350
3C
  3
GLOBAL
350
3E
1001
ACAD
1000
TREAT_AS_HARD
1070
     0
  0
DICTIONARY
  5
4A
102
{ACAD_REACTORS
330
C
102
}
330
C
100
AcDbDictionary
1001
ACAD
1000
TREAT_AS_HARD
1070
     0
  0
DICTIONARY
  5
17
102
{ACAD_REACTORS
330
C
102
}
330
C
100
AcDbDictionary
  3
STANDARD
350
18
1001
ACAD
1000
TREAT_AS_HARD
1070
     0
  0
DICTIONARY
  5
19
102
{ACAD_REACTORS
330
C
102
}
330
C
100
AcDbDictionary
1001
ACAD
1000
TREAT_AS_HARD
1070
     0
  0
DICTIONARY
  5
2A
102
{ACAD_REACTORS
330
C
102
}
330
C
100
AcDbDictionary
  3
2DWIREFRAME
350
2F
  3
3DWIREFRAME
350
30
  3
3D_HIDDEN
350
31
  3
BASIC
350
32
  3
BRIGHTEN
350
36
  3
COLORCHANGE
350
3A
  3
CONCEPTUAL
350
34
  3
DIM
350
35
  3
FACEPATTERN
350
39
  3
FLAT
350
2B
  3
FLATWITHEDGES
350
2C
  3
GOURAUD
350
2D
  3
GOURAUDWITHEDGES
350
2E
  3
LINEPATTERN
350
38
  3
REALISTIC
350
33
  3
THICKEN
350
37
1001
ACAD
1000
TREAT_AS_HARD
1070
     0
  0
DICTIONARY
  5
48
102
{ACAD_REACTORS
330
C
102
}
330
C
100
AcDbDictionary
  3
DIMASSOC
350
4B
  3
HIDETEXT
350
4C
1001
ACAD
1000
TREAT_AS_HARD
1070
     0
  0
MATERIAL
  5
3D
102
{ACAD_REACTORS
330
3B
102
}
102
{ACAD_XDICTIONARY
360
4F
102
}
330
3B
100
AcDbMaterial
  1
ByBlock
  0
MATERIAL
  5
3C
102
{ACAD_REACTORS
330
3B
102
}
102
{ACAD_XDICTIONARY
360
4D
102
}
330
3B
100
AcDbMaterial
  1
ByLayer
  0
MATERIAL
  5
3E
102
{ACAD_REACTORS
330
3B
102
}
102
{ACAD_XDICTIONARY
360
51
102
}
330
3B
100
AcDbMaterial
  1
Global
  0
MLINESTYLE
  5
18
102
{ACAD_REACTORS
330
17
102
}
330
17
100
AcDbMlineStyle
  2
Standard
 70
     0
  3

 62
   256
 51
90.0
 52
90.0
 71
     2
 49
0.5
 62
   256
  6
BYLAYER
 49
-0.5
 62
   256
  6
BYLAYER
  0
ACAD_PROXY_OBJECT
  5
2F
102
{ACAD_REACTORS
330
2A
102
}
330
2A
100
AcDbZombieObject
 90
      499
 91
      501
 93
      436
310
42CC9915DA5C99599C985B595049028333333333333E3BF0000000000000FB0107901411070040501600405405064090741402480A0340
1001
ACAD
1000
AcDbSavedByObjectVersion
1070
     0
  0
ACAD_PROXY_OBJECT
  5
30
102
{ACAD_REACTORS
330
2A
102
}
330
2A
100
AcDbZombieObject
 90
      499
 91
      501
 93
      436
310
42CCD915DA5C99599C985B595059028333333333333E3BF0000000000000FB0107901411070040501600405405064090741402480A0340
1001
ACAD
1000
AcDbSavedByObjectVersion
1070
     0
  0
ACAD_PROXY_OBJECT
  5
31
102
{ACAD_REACTORS
330
2A
102
}
330
2A
100
AcDbZombieObject
 90
      499
 91
      501
 93
      500
310
424CD108121A5919195B90640502408333333333333E3BF0000000000000FB01079024090700405020000000000001110200405405064090740C02480A0340
1001
ACAD
1000
AcDbSavedByObjectVersion
1070
     0
  0
ACAD_PROXY_OBJECT
  5
32
102
{ACAD_REACTORS
330
2A
102
}
330
2A
100
AcDbZombieObject
 90
      499
 91
      501
 93
      388
310
4150985CDA58D07406404333333333333E3BF0000000000000FB0107A41107004050150841D405064090741402480A0350
1001
ACAD
1000
AcDbSavedByObjectVersion
1070
     0
  0
ACAD_PROXY_OBJECT
  5
36
102
{ACAD_REACTORS
330
2A
102
}
330
2A
100
AcDbZombieObject
 90
      499
 91
      501
 93
      428
310
42109C9A59DA1D195B90C409028333333333333E3BF0000000000000FB010790141107004050150841D405064090741402480A029950
1001
ACAD
1000
AcDbSavedByObjectVersion
1070
     0
  0
ACAD_PROXY_OBJECT
  5
3A
102
{ACAD_REACTORS
330
2A
102
}
330
2A
100
AcDbZombieObject
 90
      499
 91
      501
 93
      452
310
42D0DBDB1BDC90DA185B99D95104090240C333333333333E3BF0000000000000FB0108901411070040501508421405064090741402480A0350
1001
ACAD
1000
AcDbSavedByObjectVersion
1070
     0
  0
ACAD_PROXY_OBJECT
  5
34
102
{ACAD_REACTORS
330
2A
102
}
330
2A
100
AcDbZombieObject
 90
      499
 91
      501
 93
      500
310
4290DBDB98D95C1D1D585B10940D028333333333333E3BF0000000000000FB0107902409070040501000000000000111010841D405064090740C02480A0340
1001
ACAD
1000
AcDbSavedByObjectVersion
1070
     0
  0
ACAD_PROXY_OBJECT
  5
35
102
{ACAD_REACTORS
330
2A
102
}
330
2A
100
AcDbZombieObject
 90
      499
 91
      501
 93
      412
310
40D11A5B50B409028333333333333E3BF0000000000000FB010790141107004050150841D405064090741402480A02677FFFFFD0
1001
ACAD
1000
AcDbSavedByObjectVersion
1070
     0
  0
ACAD_PROXY_OBJECT
  5
39
102
{ACAD_REACTORS
330
2A
102
}
330
2A
100
AcDbZombieObject
 90
      499
 91
      501
 93
      444
310
42D19858D95C185D1D195C9B90F409028333333333333E3BF0000000000000FB010790141107004050150841D405064090741402480A0350
1001
ACAD
1000
AcDbSavedByObjectVersion
1070
     0
  0
ACAD_PROXY_OBJECT
  5
2B
102
{ACAD_REACTORS
330
2A
102
}
330
2A
100
AcDbZombieObject
 90
      499
 91
      501
 93
      388
310
41119B185D240901404333333333333E3BF0000000000000F9010740A41107004050150841D405064090741402480A1B50
1001
ACAD
1000
AcDbSavedByObjectVersion
1070
     0
  0
ACAD_PROXY_OBJECT
  5
2C
102
{ACAD_REACTORS
330
2A
102
}
330
2A
100
AcDbZombieObject
 90
      499
 91
      501
 93
      476
310
43519B185D15DA5D1A115919D95CD0140901404333333333333E3BF0000000000000F9010740901411070040501600405405064090741402480A1B50
1001
ACAD
1000
AcDbSavedByObjectVersion
1070
     0
  0
ACAD_PROXY_OBJECT
  5
2D
102
{ACAD_REACTORS
330
2A
102
}
330
2A
100
AcDbZombieObject
 90
      499
 91
      501
 93
      412
310
41D1DBDD5C985D5910240902404333333333333E3BF0000000000000F9010740A411070040501641D405064090741402480A1B50
1001
ACAD
1000
AcDbSavedByObjectVersion
1070
     0
  0
ACAD_PROXY_OBJECT
  5
2E
102
{ACAD_REACTORS
330
2A
102
}
330
2A
100
AcDbZombieObject
 90
      499
 91
      501
 93
      500
310
4411DBDD5C985D5915DA5D1A115919D95CD0340902404333333333333E3BF0000000000000F9010740901411070040501600405405064090741402480A1B50
1001
ACAD
1000
AcDbSavedByObjectVersion
1070
     0
  0
ACAD_PROXY_OBJECT
  5
38
102
{ACAD_REACTORS
330
2A
102
}
330
2A
100
AcDbZombieObject
 90
      499
 91
      501
 93
      444
310
42D31A5B995C185D1D195C9B90E409028333333333333E3BF0000000000000FB010790141107004050750841D405064090741402483A0350
1001
ACAD
1000
AcDbSavedByObjectVersion
1070
     0
  0
ACAD_PROXY_OBJECT
  5
33
102
{ACAD_REACTORS
330
2A
102
}
330
2A
100
AcDbZombieObject
 90
      499
 91
      501
 93
      420
310
425499585B1A5CDD1A58D08409028333333333333E3BF0000000000000FB01079019070040501508421405064090741402480A1B40
1001
ACAD
1000
AcDbSavedByObjectVersion
1070
     0
  0
ACAD_PROXY_OBJECT
  5
37
102
{ACAD_REACTORS
330
2A
102
}
330
2A
100
AcDbZombieObject
 90
      499
 91
      501
 93
      412
310
41D51A1A58DAD95B90D409028333333333333E3BF0000000000000FB010790141107004050150C41D405064090741402480A0350
1001
ACAD
1000
AcDbSavedByObjectVersion
1070
     0
  0
DICTIONARYVAR
  5
4B
102
{ACAD_REACTORS
330
48
102
}
330
48
100
DictionaryVariables
280
     0
  1
2
  0
DICTIONARYVAR
  5
4C
102
{ACAD_REACTORS
330
48
102
}
330
48
100
DictionaryVariables
280
     0
  1
1
  0
DICTIONARY
  5
4F
330
3D
100
AcDbDictionary
  3
ACAD_XREC_ROUNDTRIP
360
50
1001
ACAD
1000
TREAT_AS_HARD
1070
     1
  0
DICTIONARY
  5
4D
330
3C
100
AcDbDictionary
  3
ACAD_XREC_ROUNDTRIP
360
4E
1001
ACAD
1000
TREAT_AS_HARD
1070
     1
  0
DICTIONARY
  5
51
330
3E
100
AcDbDictionary
  3
ACAD_XREC_ROUNDTRIP
360
52
1001
ACAD
1000
TREAT_AS_HARD
1070
     1
  0
XRECORD
  5
50
102
{ACAD_REACTORS
330
4F
102
}
330
4F
100
AcDbXrecord
102
MATERIAL
148
0.0
149
0.0
149
0.0
 93
        0
 94
      127
282
     0
 72
     1
 77
     1
171
     1
175
     1
179
     1
273
     0
  0
XRECORD
  5
4E
102
{ACAD_REACTORS
330
4D
102
}
330
4D
100
AcDbXrecord
102
MATERIAL
148
0.0
149
0.0
149
0.0
 93
        0
 94
      127
282
     0
 72
     1
 77
     1
171
     1
175
     1
179
     1
273
     0
  0
XRECORD
  5
52
102
{ACAD_REACTORS
330
51
102
}
330
51
100
AcDbXrecord
102
MATERIAL
148
0.0
149
0.0
149
0.0
 93
        0
 94
      127
282
     0
 72
     1
 77
     1
171
     1
175
     1
179
     1
273
     0
  0
ENDSEC
  0
EOF
